<?xml version="1.0" encoding="UTF-8" standalone="no"?>
<svg
   xmlns:dc="http://purl.org/dc/elements/1.1/"
   xmlns:cc="http://creativecommons.org/ns#"
   xmlns:rdf="http://www.w3.org/1999/02/22-rdf-syntax-ns#"
   xmlns:svg="http://www.w3.org/2000/svg"
   xmlns="http://www.w3.org/2000/svg"
   xmlns:xlink="http://www.w3.org/1999/xlink"
   xmlns:sodipodi="http://sodipodi.sourceforge.net/DTD/sodipodi-0.dtd"
   xmlns:inkscape="http://www.inkscape.org/namespaces/inkscape"
   enable-background="new 0 0 64 64"
   height="64px"
   id="SUNNY_copia"
   version="1.1"
   viewBox="0 0 64 64"
   width="64px"
   xml:space="preserve"
   sodipodi:docname="01n.svg"
   inkscape:version="0.92.3 (2405546, 2018-03-11)"><metadata
     id="metadata17"><rdf:RDF><cc:Work
         rdf:about=""><dc:format>image/svg+xml</dc:format><dc:type
           rdf:resource="http://purl.org/dc/dcmitype/StillImage" /></cc:Work></rdf:RDF></metadata><defs
     id="defs15"><defs
       id="defs3"><rect
         y="0.021"
         x="0.011"
         width="63.957001"
         id="SVGID_1_"
         height="63.957001" /></defs><clipPath
       id="SVGID_2_"><use
         height="100%"
         width="100%"
         y="0"
         x="0"
         style="overflow:visible"
         id="use5"
         xlink:href="#SVGID_1_"
         overflow="visible" /></clipPath></defs><sodipodi:namedview
     pagecolor="#ffffff"
     bordercolor="#666666"
     borderopacity="1"
     objecttolerance="10"
     gridtolerance="10"
     guidetolerance="10"
     inkscape:pageopacity="0"
     inkscape:pageshadow="2"
     inkscape:window-width="1879"
     inkscape:window-height="1052"
     id="namedview13"
     showgrid="false"
     inkscape:zoom="3.6875"
     inkscape:cx="-13.288136"
     inkscape:cy="32"
     inkscape:window-x="41"
     inkscape:window-y="0"
     inkscape:window-maximized="1"
     inkscape:current-layer="SUNNY_copia" /><path
     inkscape:connector-curvature="0"
     style="fill:#dddddd;fill-opacity:1"
     id="path8"
     d="m 28.104,47.708 c -5.205,0 -10.053,-2.797 -12.65,-7.298 -4.021,-6.968 -1.624,-15.909 5.343,-19.933 1.819,-1.051 3.815,-1.684 5.933,-1.881 0.403,-0.037 0.763,0.158 0.958,0.496 0.195,0.337 0.176,0.758 -0.05,1.077 -2.837,4.009 -3.091,9.338 -0.645,13.577 2.434,4.214 7.225,6.692 12.08,6.23 0.391,-0.02 0.766,0.157 0.96,0.495 0.195,0.34 0.174,0.76 -0.052,1.077 -1.234,1.739 -2.78,3.152 -4.595,4.201 -2.218,1.282 -4.736,1.959 -7.282,1.959 z M 24.851,20.951 c -1.07,0.28 -2.091,0.701 -3.055,1.258 -6.013,3.473 -8.082,11.189 -4.611,17.203 2.242,3.884 6.427,6.299 10.919,6.299 2.196,0 4.368,-0.586 6.282,-1.688 0.963,-0.557 1.837,-1.231 2.616,-2.019 -4.855,-0.303 -9.295,-3.025 -11.741,-7.257 -2.455,-4.258 -2.563,-9.462 -0.41,-13.796 z m 21.236,15.464 c -0.388,0 -1.097,-0.182 -1.47,-1.397 -0.189,-0.602 -0.933,-1.347 -1.528,-1.529 -1.218,-0.374 -1.399,-1.083 -1.401,-1.473 0,-0.389 0.182,-1.098 1.399,-1.474 0.6,-0.184 1.341,-0.928 1.53,-1.534 0.373,-1.208 1.082,-1.39 1.47,-1.39 0.389,0 1.1,0.182 1.468,1.397 0.186,0.598 0.93,1.343 1.526,1.526 1.218,0.375 1.399,1.085 1.399,1.474 0,0.389 -0.184,1.098 -1.397,1.473 -0.599,0.184 -1.343,0.928 -1.53,1.533 -0.366,1.212 -1.075,1.394 -1.466,1.394 z M 44.6,32.016 c 0.582,0.373 1.111,0.902 1.485,1.487 0.375,-0.585 0.904,-1.115 1.485,-1.487 -0.581,-0.374 -1.11,-0.903 -1.485,-1.487 -0.376,0.585 -0.903,1.113 -1.485,1.487 z m -9.839,2.133 c -0.389,0 -1.097,-0.183 -1.471,-1.397 -0.188,-0.601 -0.93,-1.346 -1.527,-1.528 -1.221,-0.375 -1.401,-1.085 -1.401,-1.475 0,-0.389 0.183,-1.098 1.4,-1.471 0.597,-0.185 1.341,-0.93 1.53,-1.535 0.372,-1.21 1.08,-1.391 1.469,-1.391 0.389,0 1.099,0.182 1.468,1.398 0.186,0.596 0.929,1.342 1.53,1.528 1.214,0.372 1.396,1.081 1.397,1.47 0,0.39 -0.182,1.099 -1.399,1.475 -0.6,0.184 -1.343,0.928 -1.53,1.531 -0.368,1.213 -1.078,1.395 -1.466,1.395 z M 33.273,29.75 c 0.582,0.373 1.11,0.902 1.485,1.486 0.375,-0.585 0.903,-1.113 1.487,-1.486 -0.584,-0.375 -1.112,-0.904 -1.487,-1.487 -0.374,0.585 -0.903,1.114 -1.485,1.487 z m 8.284,-4.661 c -0.388,0 -1.097,-0.182 -1.47,-1.396 -0.188,-0.601 -0.933,-1.347 -1.528,-1.529 -1.218,-0.374 -1.399,-1.083 -1.401,-1.473 0,-0.39 0.182,-1.098 1.399,-1.474 0.598,-0.183 1.342,-0.928 1.53,-1.534 0.373,-1.209 1.082,-1.391 1.47,-1.391 0.391,0 1.1,0.182 1.466,1.4 0.188,0.595 0.932,1.341 1.528,1.524 1.219,0.375 1.399,1.084 1.399,1.474 -0.002,0.389 -0.183,1.099 -1.401,1.473 -0.595,0.183 -1.339,0.929 -1.528,1.534 -0.365,1.209 -1.074,1.392 -1.464,1.392 z M 40.069,20.69 c 0.582,0.374 1.111,0.902 1.485,1.487 0.377,-0.586 0.904,-1.114 1.485,-1.486 -0.581,-0.374 -1.11,-0.903 -1.487,-1.486 -0.373,0.585 -0.903,1.112 -1.483,1.485 z"
     clip-path="url(#SVGID_2_)"
     transform="matrix(1.7308307,0,0,1.7308307,-23.372333,-18.57447)" /></svg>