<?xml version="1.0" encoding="UTF-8" standalone="no"?>
<svg
   xmlns:dc="http://purl.org/dc/elements/1.1/"
   xmlns:cc="http://creativecommons.org/ns#"
   xmlns:rdf="http://www.w3.org/1999/02/22-rdf-syntax-ns#"
   xmlns:svg="http://www.w3.org/2000/svg"
   xmlns="http://www.w3.org/2000/svg"
   xmlns:xlink="http://www.w3.org/1999/xlink"
   xmlns:sodipodi="http://sodipodi.sourceforge.net/DTD/sodipodi-0.dtd"
   xmlns:inkscape="http://www.inkscape.org/namespaces/inkscape"
   enable-background="new 0 0 64 64"
   height="64px"
   id="CLOUDY"
   version="1.1"
   viewBox="0 0 64 64"
   width="64px"
   xml:space="preserve"
   sodipodi:docname="02d.svg"
   inkscape:version="0.92.3 (2405546, 2018-03-11)"><metadata
     id="metadata17"><rdf:RDF><cc:Work
         rdf:about=""><dc:format>image/svg+xml</dc:format><dc:type
           rdf:resource="http://purl.org/dc/dcmitype/StillImage" /></cc:Work></rdf:RDF></metadata><defs
     id="defs15" /><sodipodi:namedview
     pagecolor="#ffffff"
     bordercolor="#666666"
     borderopacity="1"
     objecttolerance="10"
     gridtolerance="10"
     guidetolerance="10"
     inkscape:pageopacity="0"
     inkscape:pageshadow="2"
     inkscape:window-width="1879"
     inkscape:window-height="1052"
     id="namedview13"
     showgrid="false"
     inkscape:zoom="3.6875"
     inkscape:cx="-13.288136"
     inkscape:cy="32"
     inkscape:window-x="41"
     inkscape:window-y="0"
     inkscape:window-maximized="1"
     inkscape:current-layer="CLOUDY" /><g
     id="g10"
     style="fill:#dddddd;fill-opacity:1"
     transform="matrix(1.2098756,0,0,1.2098756,-6.0578472,4.2055276)"><defs
       id="defs3"><rect
         height="63.957001"
         id="SVGID_1_"
         width="63.957001"
         x="0.011"
         y="0.021" /></defs><clipPath
       id="SVGID_2_"><use
         overflow="visible"
         xlink:href="#SVGID_1_"
         id="use5"
         style="overflow:visible"
         x="0"
         y="0"
         width="100%"
         height="100%" /></clipPath><path
       clip-path="url(#SVGID_2_)"
       d="m 41.237,18.217 c -0.256,0 -0.512,-0.098 -0.707,-0.293 -0.391,-0.39 -0.391,-1.022 0,-1.413 l 1.558,-1.558 c 0.391,-0.39 1.022,-0.39 1.413,0 0.391,0.391 0.391,1.023 0,1.413 l -1.558,1.558 c -0.195,0.196 -0.451,0.293 -0.706,0.293 z m -28.212,28.629 1.558,-1.558 c 0.39,-0.391 0.39,-1.022 0,-1.413 -0.391,-0.391 -1.023,-0.391 -1.413,0 l -1.558,1.558 c -0.39,0.39 -0.39,1.022 0,1.413 0.195,0.195 0.451,0.293 0.707,0.293 0.256,0 0.511,-0.098 0.706,-0.293 z M 9.208,30.899 c 0,-0.553 -0.447,-1 -0.999,-1 H 6.007 c -0.552,0 -1,0.447 -1,1 0,0.552 0.447,0.999 1,0.999 h 2.202 c 0.552,0 0.999,-0.446 0.999,-0.999 z M 28.558,11.551 V 9.348 c 0,-0.552 -0.447,-0.999 -1,-0.999 -0.553,0 -1,0.447 -1,0.999 v 2.203 c 0,0.552 0.447,1 1,1 0.553,0 1,-0.448 1,-1 z m -13.975,6.373 c 0.39,-0.39 0.39,-1.022 0,-1.413 l -1.558,-1.558 c -0.39,-0.39 -1.022,-0.39 -1.413,0 -0.39,0.391 -0.39,1.023 0,1.413 l 1.558,1.558 c 0.195,0.195 0.451,0.293 0.707,0.293 0.256,0 0.511,-0.097 0.706,-0.293 z m 43.322,22.744 c 0,4.827 -3.927,8.754 -8.754,8.754 H 27.618 c -3.741,0 -6.866,-2.621 -7.674,-6.119 -4.304,-2.648 -6.973,-7.345 -6.973,-12.404 0,-8.044 6.545,-14.59 14.59,-14.59 6.739,0 12.567,4.656 14.146,11.147 2.487,0.714 4.647,2.326 6.031,4.588 0.498,-0.091 0.959,-0.134 1.413,-0.134 4.828,0 8.754,3.929 8.754,8.758 z M 19.762,40.77 c 0.015,-0.154 0.063,-0.297 0.086,-0.447 0.036,-0.229 0.075,-0.452 0.13,-0.675 0.067,-0.271 0.152,-0.533 0.247,-0.793 0.077,-0.211 0.153,-0.419 0.247,-0.622 0.116,-0.252 0.252,-0.488 0.393,-0.725 0.112,-0.188 0.221,-0.377 0.348,-0.554 0.162,-0.225 0.343,-0.432 0.527,-0.639 0.143,-0.16 0.278,-0.326 0.434,-0.475 0.205,-0.195 0.429,-0.366 0.655,-0.54 0.164,-0.127 0.319,-0.262 0.494,-0.377 0.25,-0.162 0.518,-0.293 0.786,-0.426 0.176,-0.09 0.341,-0.191 0.525,-0.268 0.307,-0.124 0.631,-0.208 0.956,-0.296 0.164,-0.044 0.319,-0.109 0.487,-0.143 0.5,-0.1 1.015,-0.156 1.544,-0.156 0.458,0 0.924,0.048 1.407,0.146 1.534,-4.016 5.427,-6.744 9.783,-6.744 0.244,0 0.492,0.011 0.744,0.031 -1.642,-5.154 -6.474,-8.762 -11.992,-8.762 -6.942,0 -12.591,5.648 -12.591,12.591 -0.003,3.87 1.796,7.506 4.79,9.874 z m 36.145,-0.102 c 0,-3.728 -3.031,-6.759 -6.756,-6.759 -0.505,0 -1.038,0.075 -1.675,0.238 -0.45,0.104 -0.921,-0.098 -1.134,-0.511 -1.163,-2.254 -3.23,-3.812 -5.623,-4.365 -0.016,-0.003 -0.029,-0.002 -0.045,-0.005 -0.328,-0.074 -0.639,-0.128 -0.935,-0.166 -0.309,-0.034 -0.617,-0.064 -0.932,-0.064 -3.792,0 -7.15,2.555 -8.164,6.214 -0.072,0.262 -0.248,0.481 -0.487,0.61 -0.12,0.063 -0.251,0.102 -0.383,0.115 -0.133,0.014 -0.267,0 -0.395,-0.041 -0.641,-0.203 -1.217,-0.3 -1.762,-0.3 -3.25,0 -5.894,2.645 -5.894,5.896 0,0.344 0.048,0.676 0.104,1.004 0.001,0.004 -0.002,0.006 -0.001,0.01 0.483,2.766 2.888,4.879 5.791,4.879 h 21.533 c 3.727,0 6.758,-3.031 6.758,-6.755 z"
       id="path8"
       style="fill:#dddddd;fill-opacity:1"
       inkscape:connector-curvature="0" /></g></svg>