<?xml version="1.0" encoding="UTF-8" standalone="no"?>
<svg
   xmlns:dc="http://purl.org/dc/elements/1.1/"
   xmlns:cc="http://creativecommons.org/ns#"
   xmlns:rdf="http://www.w3.org/1999/02/22-rdf-syntax-ns#"
   xmlns:svg="http://www.w3.org/2000/svg"
   xmlns="http://www.w3.org/2000/svg"
   xmlns:xlink="http://www.w3.org/1999/xlink"
   xmlns:sodipodi="http://sodipodi.sourceforge.net/DTD/sodipodi-0.dtd"
   xmlns:inkscape="http://www.inkscape.org/namespaces/inkscape"
   enable-background="new 0 0 64 64"
   height="64px"
   id="CLOUDY_copia"
   version="1.1"
   viewBox="0 0 64 64"
   width="64px"
   xml:space="preserve"
   sodipodi:docname="02n.svg"
   inkscape:version="0.92.3 (2405546, 2018-03-11)"><metadata
     id="metadata17"><rdf:RDF><cc:Work
         rdf:about=""><dc:format>image/svg+xml</dc:format><dc:type
           rdf:resource="http://purl.org/dc/dcmitype/StillImage" /></cc:Work></rdf:RDF></metadata><defs
     id="defs15" /><sodipodi:namedview
     pagecolor="#ffffff"
     bordercolor="#666666"
     borderopacity="1"
     objecttolerance="10"
     gridtolerance="10"
     guidetolerance="10"
     inkscape:pageopacity="0"
     inkscape:pageshadow="2"
     inkscape:window-width="1879"
     inkscape:window-height="1052"
     id="namedview13"
     showgrid="false"
     inkscape:zoom="3.6875"
     inkscape:cx="-13.288136"
     inkscape:cy="32"
     inkscape:window-x="41"
     inkscape:window-y="0"
     inkscape:window-maximized="1"
     inkscape:current-layer="CLOUDY_copia" /><g
     id="g10"
     style="fill:#dddddd;fill-opacity:1"
     transform="matrix(1.2916507,0,0,1.2916507,-7.868736,0.89640558)"><defs
       id="defs3"><rect
         height="63.957001"
         id="SVGID_1_"
         width="63.957001"
         x="0.011"
         y="0.021" /></defs><clipPath
       id="SVGID_2_"><use
         overflow="visible"
         xlink:href="#SVGID_1_"
         id="use5"
         style="overflow:visible"
         x="0"
         y="0"
         width="100%"
         height="100%" /></clipPath><path
       clip-path="url(#SVGID_2_)"
       d="m 44.449,23.372 c -0.388,0 -1.097,-0.182 -1.47,-1.396 -0.187,-0.602 -0.931,-1.347 -1.527,-1.53 -1.219,-0.374 -1.402,-1.083 -1.402,-1.473 0,-0.391 0.184,-1.1 1.402,-1.474 0.597,-0.184 1.341,-0.928 1.527,-1.532 0.373,-1.211 1.082,-1.393 1.47,-1.393 0.389,0 1.1,0.183 1.468,1.399 0.186,0.596 0.93,1.341 1.528,1.525 1.217,0.374 1.399,1.083 1.399,1.474 0,0.389 -0.183,1.099 -1.401,1.473 -0.597,0.185 -1.341,0.929 -1.528,1.533 -0.366,1.212 -1.077,1.394 -1.466,1.394 z m -1.487,-4.399 c 0.582,0.374 1.111,0.903 1.485,1.487 0.377,-0.585 0.904,-1.114 1.487,-1.487 -0.583,-0.373 -1.112,-0.902 -1.487,-1.485 -0.374,0.584 -0.903,1.112 -1.485,1.485 z m -9.839,-1.179 c -0.388,0 -1.096,-0.181 -1.47,-1.395 -0.187,-0.601 -0.93,-1.346 -1.527,-1.529 -1.219,-0.376 -1.4,-1.084 -1.4,-1.474 0,-0.39 0.182,-1.099 1.4,-1.473 0.597,-0.184 1.34,-0.928 1.529,-1.533 0.372,-1.21 1.08,-1.392 1.468,-1.392 0.391,0 1.099,0.182 1.468,1.399 0.186,0.596 0.93,1.342 1.528,1.525 1.216,0.374 1.397,1.083 1.399,1.473 0,0.389 -0.182,1.098 -1.399,1.474 -0.599,0.183 -1.343,0.929 -1.53,1.533 -0.367,1.21 -1.075,1.392 -1.466,1.392 z m -1.486,-4.398 c 0.582,0.374 1.11,0.901 1.485,1.486 0.376,-0.585 0.905,-1.113 1.486,-1.486 -0.583,-0.373 -1.111,-0.902 -1.487,-1.485 -0.374,0.585 -0.902,1.112 -1.484,1.485 z m 12.81,13.073 c -0.646,0 -1.298,0.067 -2.01,0.209 -2.422,-4.101 -6.791,-6.617 -11.581,-6.617 -3.997,0 -7.662,1.813 -10.163,4.713 -1.073,-3.659 -0.443,-7.669 1.785,-10.817 0.226,-0.319 0.245,-0.74 0.05,-1.078 -0.196,-0.337 -0.556,-0.535 -0.958,-0.496 -2.12,0.198 -4.116,0.832 -5.932,1.88 -6.012,3.473 -8.709,10.816 -6.49,17.332 -1.879,1.829 -3.056,4.375 -3.056,7.2 0,5.548 4.513,10.06 10.062,10.06 h 28.295 c 6.172,0 11.192,-5.021 11.192,-11.193 C 55.64,31.49 50.619,26.469 44.447,26.469 Z M 16.636,15.996 c 0.963,-0.557 1.986,-0.978 3.057,-1.259 -1.84,3.72 -2.02,8.118 -0.43,12.009 -0.009,0.015 -0.016,0.03 -0.024,0.046 -0.131,0.226 -0.25,0.457 -0.368,0.691 -0.232,0.455 -0.444,0.914 -0.62,1.378 -0.015,0.039 -0.037,0.074 -0.051,0.113 -0.632,-0.145 -1.233,-0.212 -1.823,-0.228 -1.419,-0.057 -2.749,0.202 -3.991,0.733 -0.55,0.224 -1.069,0.504 -1.565,0.817 -1.527,-5.452 0.828,-11.421 5.815,-14.3 z M 44.447,46.857 H 16.152 c -4.446,0 -8.063,-3.617 -8.063,-8.062 0,-2.459 1.129,-4.635 2.869,-6.116 10e-4,-0.001 0.002,-0.001 0.002,-0.001 0.361,-0.308 0.741,-0.575 1.133,-0.81 0.054,-0.031 0.109,-0.059 0.164,-0.09 0.339,-0.193 0.687,-0.361 1.045,-0.501 0.195,-0.074 0.399,-0.128 0.6,-0.187 0.25,-0.075 0.497,-0.158 0.753,-0.208 0.486,-0.092 0.984,-0.151 1.496,-0.151 0.744,0 1.531,0.135 2.408,0.412 0.258,0.079 0.538,0.053 0.778,-0.075 0.238,-0.13 0.414,-0.35 0.486,-0.611 0.154,-0.557 0.361,-1.088 0.592,-1.604 0.215,-0.467 0.469,-0.929 0.754,-1.383 2.055,-3.284 5.679,-5.41 9.685,-5.41 4.301,0 8.2,2.382 10.182,6.217 0.215,0.413 0.675,0.625 1.136,0.509 0.854,-0.218 1.577,-0.32 2.273,-0.32 5.069,0 9.193,4.125 9.193,9.195 0.003,5.072 -4.121,9.196 -9.191,9.196 z"
       id="path8"
       style="fill:#dddddd;fill-opacity:1"
       inkscape:connector-curvature="0" /></g></svg>