<?xml version="1.0" encoding="UTF-8" standalone="no"?>
<svg
   xmlns:dc="http://purl.org/dc/elements/1.1/"
   xmlns:cc="http://creativecommons.org/ns#"
   xmlns:rdf="http://www.w3.org/1999/02/22-rdf-syntax-ns#"
   xmlns:svg="http://www.w3.org/2000/svg"
   xmlns="http://www.w3.org/2000/svg"
   xmlns:xlink="http://www.w3.org/1999/xlink"
   xmlns:sodipodi="http://sodipodi.sourceforge.net/DTD/sodipodi-0.dtd"
   xmlns:inkscape="http://www.inkscape.org/namespaces/inkscape"
   enable-background="new 0 0 64 64"
   height="64px"
   id="CLOUDS"
   version="1.1"
   viewBox="0 0 64 64"
   width="64px"
   xml:space="preserve"
   sodipodi:docname="04d.svg"
   inkscape:version="0.92.3 (2405546, 2018-03-11)"><metadata
     id="metadata17"><rdf:RDF><cc:Work
         rdf:about=""><dc:format>image/svg+xml</dc:format><dc:type
           rdf:resource="http://purl.org/dc/dcmitype/StillImage" /></cc:Work></rdf:RDF></metadata><defs
     id="defs15" /><sodipodi:namedview
     pagecolor="#ffffff"
     bordercolor="#666666"
     borderopacity="1"
     objecttolerance="10"
     gridtolerance="10"
     guidetolerance="10"
     inkscape:pageopacity="0"
     inkscape:pageshadow="2"
     inkscape:window-width="1879"
     inkscape:window-height="1052"
     id="namedview13"
     showgrid="false"
     inkscape:zoom="3.6875"
     inkscape:cx="-13.288136"
     inkscape:cy="32"
     inkscape:window-x="41"
     inkscape:window-y="0"
     inkscape:window-maximized="1"
     inkscape:current-layer="CLOUDS" /><g
     id="g10"
     style="fill:#dddddd;fill-opacity:1"
     transform="matrix(1.2098527,0,0,1.2098527,-6.7025842,9.2360158)"><defs
       id="defs3"><rect
         height="63.957001"
         id="SVGID_1_"
         width="63.957001"
         x="0.011"
         y="0.021" /></defs><clipPath
       id="SVGID_2_"><use
         overflow="visible"
         xlink:href="#SVGID_1_"
         id="use5"
         style="overflow:visible"
         x="0"
         y="0"
         width="100%"
         height="100%" /></clipPath><path
       clip-path="url(#SVGID_2_)"
       d="m 49.685,27.751 c -0.455,0 -0.916,0.043 -1.413,0.134 -1.901,-3.107 -5.257,-5.006 -8.93,-5.006 -1.356,0 -2.656,0.292 -3.866,0.776 -0.609,-0.08 -1.236,-0.035 -1.922,0.088 -1.903,-3.106 -5.258,-5.005 -8.931,-5.005 -4.358,0 -8.25,2.728 -9.783,6.744 -0.486,-0.099 -0.952,-0.146 -1.407,-0.146 -4.352,0 -7.893,3.542 -7.893,7.895 0,4.353 3.541,7.894 7.893,7.894 h 7.819 c 1.34,2.453 3.913,4.14 6.899,4.14 h 21.534 c 4.827,0 8.754,-3.927 8.754,-8.754 -10e-4,-4.831 -3.927,-8.76 -8.754,-8.76 z M 20.458,39.124 h -7.025 c -3.25,0 -5.894,-2.645 -5.894,-5.895 0,-3.251 2.644,-5.896 5.894,-5.896 0.546,0 1.107,0.096 1.763,0.303 0.258,0.08 0.539,0.054 0.777,-0.075 0.238,-0.13 0.414,-0.35 0.486,-0.611 1.014,-3.659 4.371,-6.214 8.165,-6.214 3.181,0 6.068,1.763 7.535,4.6 0.05,0.095 0.112,0.18 0.185,0.251 -0.008,0.007 -0.014,0.015 -0.021,0.021 -0.17,0.152 -0.323,0.319 -0.481,0.482 -0.185,0.188 -0.365,0.379 -0.534,0.581 -0.125,0.149 -0.243,0.303 -0.36,0.46 -0.187,0.25 -0.361,0.51 -0.525,0.778 -0.084,0.136 -0.171,0.269 -0.249,0.41 -0.231,0.419 -0.443,0.851 -0.616,1.304 -0.486,-0.099 -0.951,-0.146 -1.407,-0.146 -4.352,0 -7.892,3.542 -7.892,7.896 0,0.58 0.072,1.145 0.191,1.688 0.005,0.02 0.003,0.042 0.008,0.063 z m 29.227,4.14 H 28.151 c -2.414,0 -4.489,-1.462 -5.398,-3.544 -0.328,-0.752 -0.495,-1.542 -0.495,-2.349 0,-3.251 2.644,-5.897 5.894,-5.897 0.547,0 1.108,0.096 1.764,0.302 0.257,0.081 0.538,0.053 0.777,-0.075 0.238,-0.129 0.414,-0.35 0.486,-0.611 0.154,-0.557 0.381,-1.082 0.64,-1.586 0.068,-0.134 0.147,-0.261 0.223,-0.391 0.235,-0.4 0.498,-0.783 0.794,-1.138 0.065,-0.079 0.126,-0.163 0.194,-0.239 0.81,-0.899 1.811,-1.634 2.966,-2.135 1.039,-0.452 2.167,-0.724 3.348,-0.724 3.182,0 6.068,1.762 7.534,4.6 0.213,0.413 0.683,0.623 1.134,0.51 0.637,-0.162 1.169,-0.237 1.675,-0.237 3.724,0 6.755,3.032 6.755,6.759 -0.003,3.723 -3.034,6.755 -6.757,6.755 z"
       id="path8"
       style="fill:#dddddd;fill-opacity:1"
       inkscape:connector-curvature="0" /></g></svg>