<?xml version="1.0" encoding="UTF-8" standalone="no"?>
<svg
   xmlns:dc="http://purl.org/dc/elements/1.1/"
   xmlns:cc="http://creativecommons.org/ns#"
   xmlns:rdf="http://www.w3.org/1999/02/22-rdf-syntax-ns#"
   xmlns:svg="http://www.w3.org/2000/svg"
   xmlns="http://www.w3.org/2000/svg"
   xmlns:xlink="http://www.w3.org/1999/xlink"
   xmlns:sodipodi="http://sodipodi.sourceforge.net/DTD/sodipodi-0.dtd"
   xmlns:inkscape="http://www.inkscape.org/namespaces/inkscape"
   enable-background="new 0 0 64 64"
   height="64px"
   id="RAINY"
   version="1.1"
   viewBox="0 0 64 64"
   width="64px"
   xml:space="preserve"
   sodipodi:docname="09d.svg"
   inkscape:version="0.92.3 (2405546, 2018-03-11)"><metadata
     id="metadata17"><rdf:RDF><cc:Work
         rdf:about=""><dc:format>image/svg+xml</dc:format><dc:type
           rdf:resource="http://purl.org/dc/dcmitype/StillImage" /></cc:Work></rdf:RDF></metadata><defs
     id="defs15" /><sodipodi:namedview
     pagecolor="#ffffff"
     bordercolor="#666666"
     borderopacity="1"
     objecttolerance="10"
     gridtolerance="10"
     guidetolerance="10"
     inkscape:pageopacity="0"
     inkscape:pageshadow="2"
     inkscape:window-width="1879"
     inkscape:window-height="1052"
     id="namedview13"
     showgrid="false"
     inkscape:zoom="3.6875"
     inkscape:cx="-13.288136"
     inkscape:cy="32"
     inkscape:window-x="41"
     inkscape:window-y="0"
     inkscape:window-maximized="1"
     inkscape:current-layer="RAINY" /><g
     id="g10"
     style="fill:#dddddd;fill-opacity:1"
     transform="matrix(1.2916507,0,0,1.2916507,-9.317968,-7.0214129)"><defs
       id="defs3"><rect
         height="63.957001"
         id="SVGID_1_"
         width="63.957001"
         x="0.011"
         y="0.021" /></defs><clipPath
       id="SVGID_2_"><use
         overflow="visible"
         xlink:href="#SVGID_1_"
         id="use5"
         style="overflow:visible"
         x="0"
         y="0"
         width="100%"
         height="100%" /></clipPath><path
       clip-path="url(#SVGID_2_)"
       d="M 45.572,39.405 H 17.274 c -5.547,0 -10.06,-4.513 -10.06,-10.06 0,-5.547 4.513,-10.06 10.06,-10.06 0.66,0 1.336,0.079 2.048,0.242 1.901,-5.295 6.971,-8.914 12.658,-8.914 4.791,0 9.159,2.516 11.579,6.616 0.713,-0.141 1.364,-0.208 2.013,-0.208 6.171,0 11.191,5.021 11.191,11.191 0.001,6.173 -5.02,11.193 -11.191,11.193 z M 17.274,21.285 c -4.445,0 -8.061,3.616 -8.061,8.061 0,4.445 3.616,8.061 8.061,8.061 h 28.298 c 5.068,0 9.192,-4.124 9.192,-9.194 0,-5.069 -4.124,-9.193 -9.192,-9.193 -0.699,0 -1.421,0.102 -2.274,0.32 -0.452,0.115 -0.921,-0.096 -1.136,-0.509 -1.981,-3.835 -5.881,-6.217 -10.182,-6.217 -5.125,0 -9.663,3.453 -11.033,8.397 -0.072,0.261 -0.248,0.481 -0.486,0.611 -0.238,0.129 -0.517,0.154 -0.778,0.075 -0.889,-0.281 -1.655,-0.412 -2.409,-0.412 z m 23.577,32.943 2.498,-9.993 c 0.133,-0.535 -0.191,-1.078 -0.728,-1.213 -0.547,-0.128 -1.08,0.191 -1.212,0.729 l -2.499,9.993 c -0.133,0.535 0.191,1.077 0.729,1.212 0.082,0.02 0.162,0.029 0.242,0.029 0.448,-10e-4 0.856,-0.303 0.97,-0.757 z m -9.141,0 2.498,-9.993 c 0.135,-0.535 -0.19,-1.078 -0.727,-1.213 -0.54,-0.134 -1.079,0.191 -1.211,0.729 l -2.499,9.993 c -0.135,0.535 0.191,1.077 0.727,1.212 0.081,0.02 0.163,0.029 0.243,0.029 0.449,-10e-4 0.856,-0.303 0.969,-0.757 z m -9.142,0 2.499,-9.993 c 0.134,-0.535 -0.191,-1.078 -0.727,-1.213 -0.541,-0.134 -1.079,0.191 -1.211,0.729 l -2.498,9.993 c -0.135,0.535 0.191,1.077 0.727,1.212 0.081,0.02 0.163,0.029 0.243,0.029 0.447,-10e-4 0.854,-0.303 0.967,-0.757 z"
       id="path8"
       style="fill:#dddddd;fill-opacity:1"
       inkscape:connector-curvature="0" /></g></svg>