<?xml version="1.0" encoding="UTF-8" standalone="no"?>
<svg
   xmlns:dc="http://purl.org/dc/elements/1.1/"
   xmlns:cc="http://creativecommons.org/ns#"
   xmlns:rdf="http://www.w3.org/1999/02/22-rdf-syntax-ns#"
   xmlns:svg="http://www.w3.org/2000/svg"
   xmlns="http://www.w3.org/2000/svg"
   xmlns:xlink="http://www.w3.org/1999/xlink"
   xmlns:sodipodi="http://sodipodi.sourceforge.net/DTD/sodipodi-0.dtd"
   xmlns:inkscape="http://www.inkscape.org/namespaces/inkscape"
   enable-background="new 0 0 64 64"
   height="64px"
   id="RAINY2"
   version="1.1"
   viewBox="0 0 64 64"
   width="64px"
   xml:space="preserve"
   sodipodi:docname="10n.svg"
   inkscape:version="0.92.3 (2405546, 2018-03-11)"><metadata
     id="metadata17"><rdf:RDF><cc:Work
         rdf:about=""><dc:format>image/svg+xml</dc:format><dc:type
           rdf:resource="http://purl.org/dc/dcmitype/StillImage" /></cc:Work></rdf:RDF></metadata><defs
     id="defs15" /><sodipodi:namedview
     pagecolor="#ffffff"
     bordercolor="#666666"
     borderopacity="1"
     objecttolerance="10"
     gridtolerance="10"
     guidetolerance="10"
     inkscape:pageopacity="0"
     inkscape:pageshadow="2"
     inkscape:window-width="1879"
     inkscape:window-height="1052"
     id="namedview13"
     showgrid="false"
     inkscape:zoom="3.6875"
     inkscape:cx="-13.288136"
     inkscape:cy="32"
     inkscape:window-x="41"
     inkscape:window-y="0"
     inkscape:window-maximized="1"
     inkscape:current-layer="RAINY2" /><g
     id="g10"
     style="fill:#dddddd;fill-opacity:1"
     transform="matrix(1.2098527,0,0,1.2098527,-6.7025842,-2.522543)"><defs
       id="defs3"><rect
         height="63.957001"
         id="SVGID_1_"
         width="63.957001"
         x="0.011"
         y="0.021" /></defs><clipPath
       id="SVGID_2_"><use
         overflow="visible"
         xlink:href="#SVGID_1_"
         id="use5"
         style="overflow:visible"
         x="0"
         y="0"
         width="100%"
         height="100%" /></clipPath><path
       clip-path="url(#SVGID_2_)"
       d="m 49.685,21.894 c -0.457,0 -0.918,0.043 -1.413,0.133 -1.901,-3.106 -5.257,-5.005 -8.93,-5.005 -1.356,0 -2.656,0.291 -3.866,0.777 -0.607,-0.081 -1.238,-0.038 -1.922,0.087 -1.903,-3.107 -5.258,-5.006 -8.931,-5.006 -4.357,0 -8.25,2.729 -9.783,6.745 -0.486,-0.099 -0.952,-0.146 -1.407,-0.146 -4.352,0 -7.893,3.542 -7.893,7.895 0,4.353 3.541,7.894 7.893,7.894 h 7.819 c 1.34,2.453 3.913,4.14 6.899,4.14 h 21.534 c 4.827,0 8.754,-3.927 8.754,-8.756 -10e-4,-4.831 -3.927,-8.758 -8.754,-8.758 z M 20.458,33.267 h -7.025 c -3.25,0 -5.894,-2.645 -5.894,-5.895 0,-3.251 2.644,-5.896 5.894,-5.896 0.546,0 1.107,0.096 1.763,0.303 0.258,0.079 0.539,0.054 0.777,-0.075 0.238,-0.13 0.414,-0.35 0.486,-0.611 1.014,-3.66 4.371,-6.214 8.165,-6.214 3.181,0 6.068,1.762 7.535,4.6 0.049,0.095 0.111,0.179 0.185,0.251 -0.008,0.007 -0.014,0.015 -0.021,0.021 -0.168,0.151 -0.32,0.317 -0.478,0.479 -0.187,0.19 -0.368,0.383 -0.539,0.586 -0.123,0.147 -0.24,0.299 -0.355,0.453 -0.189,0.253 -0.364,0.515 -0.53,0.786 -0.082,0.134 -0.169,0.266 -0.245,0.405 -0.232,0.42 -0.444,0.852 -0.617,1.305 -0.486,-0.099 -0.951,-0.146 -1.407,-0.146 -4.352,0 -7.892,3.542 -7.892,7.895 0,0.581 0.072,1.143 0.191,1.688 0.004,0.021 0.002,0.043 0.007,0.065 z m 29.227,4.139 H 28.151 c -2.413,0 -4.486,-1.462 -5.396,-3.541 -0.33,-0.753 -0.497,-1.544 -0.497,-2.352 0,-3.252 2.644,-5.896 5.894,-5.896 0.547,0 1.108,0.096 1.764,0.302 0.129,0.04 0.264,0.054 0.395,0.041 0.133,-0.013 0.263,-0.052 0.382,-0.116 0.238,-0.129 0.414,-0.35 0.486,-0.611 0.154,-0.557 0.381,-1.081 0.639,-1.585 0.069,-0.134 0.148,-0.262 0.225,-0.393 0.233,-0.399 0.495,-0.78 0.792,-1.134 0.066,-0.08 0.127,-0.165 0.197,-0.243 0.807,-0.897 1.806,-1.63 2.957,-2.13 1.041,-0.454 2.171,-0.728 3.355,-0.728 3.182,0 6.068,1.762 7.534,4.6 0.215,0.413 0.683,0.624 1.134,0.509 0.635,-0.161 1.165,-0.236 1.675,-0.236 3.724,0 6.755,3.031 6.755,6.757 -0.003,3.725 -3.034,6.756 -6.757,6.756 z m -5.234,17.578 c -0.079,0 -0.159,-0.01 -0.241,-0.029 -0.537,-0.135 -0.861,-0.677 -0.729,-1.212 l 2.498,-9.993 c 0.133,-0.537 0.67,-0.856 1.213,-0.729 0.536,0.135 0.86,0.678 0.728,1.213 l -2.498,9.993 c -0.113,0.455 -0.522,0.757 -0.971,0.757 z m -9.139,0 c -0.08,0 -0.16,-0.01 -0.242,-0.029 -0.537,-0.135 -0.861,-0.677 -0.729,-1.212 L 36.84,43.75 c 0.133,-0.537 0.669,-0.856 1.212,-0.729 0.536,0.135 0.86,0.678 0.728,1.213 l -2.498,9.993 c -0.114,0.455 -0.522,0.757 -0.97,0.757 z m -9.14,0 c -0.08,0 -0.162,-0.01 -0.243,-0.029 -0.536,-0.135 -0.861,-0.677 -0.727,-1.212 L 27.7,43.75 c 0.133,-0.537 0.676,-0.862 1.211,-0.729 0.536,0.135 0.862,0.678 0.727,1.213 l -2.498,9.993 c -0.113,0.455 -0.52,0.757 -0.968,0.757 z m -9.142,0 c -0.08,0 -0.162,-0.01 -0.243,-0.029 -0.536,-0.135 -0.862,-0.677 -0.727,-1.212 l 2.498,-9.993 c 0.133,-0.537 0.677,-0.862 1.211,-0.729 0.536,0.135 0.862,0.678 0.727,1.213 l -2.499,9.993 c -0.113,0.455 -0.519,0.757 -0.967,0.757 z"
       id="path8"
       style="fill:#dddddd;fill-opacity:1"
       inkscape:connector-curvature="0" /></g></svg>