<?xml version="1.0" encoding="UTF-8" standalone="no"?>
<svg
   xmlns:dc="http://purl.org/dc/elements/1.1/"
   xmlns:cc="http://creativecommons.org/ns#"
   xmlns:rdf="http://www.w3.org/1999/02/22-rdf-syntax-ns#"
   xmlns:svg="http://www.w3.org/2000/svg"
   xmlns="http://www.w3.org/2000/svg"
   xmlns:xlink="http://www.w3.org/1999/xlink"
   xmlns:sodipodi="http://sodipodi.sourceforge.net/DTD/sodipodi-0.dtd"
   xmlns:inkscape="http://www.inkscape.org/namespaces/inkscape"
   enable-background="new 0 0 64 64"
   height="64px"
   id="STORMY"
   version="1.1"
   viewBox="0 0 64 64"
   width="64px"
   xml:space="preserve"
   sodipodi:docname="11n.svg"
   inkscape:version="0.92.3 (2405546, 2018-03-11)"><metadata
     id="metadata17"><rdf:RDF><cc:Work
         rdf:about=""><dc:format>image/svg+xml</dc:format><dc:type
           rdf:resource="http://purl.org/dc/dcmitype/StillImage" /></cc:Work></rdf:RDF></metadata><defs
     id="defs15" /><sodipodi:namedview
     pagecolor="#ffffff"
     bordercolor="#666666"
     borderopacity="1"
     objecttolerance="10"
     gridtolerance="10"
     guidetolerance="10"
     inkscape:pageopacity="0"
     inkscape:pageshadow="2"
     inkscape:window-width="1879"
     inkscape:window-height="1052"
     id="namedview13"
     showgrid="false"
     inkscape:zoom="3.6875"
     inkscape:cx="-13.288136"
     inkscape:cy="32"
     inkscape:window-x="41"
     inkscape:window-y="0"
     inkscape:window-maximized="1"
     inkscape:current-layer="STORMY" /><g
     id="g10"
     style="fill:#dddddd;fill-opacity:1"
     transform="matrix(1.2916246,0,0,1.2916246,-9.3164884,-6.7978202)"><defs
       id="defs3"><rect
         height="63.957001"
         id="SVGID_1_"
         width="63.957001"
         x="0.011"
         y="0.021" /></defs><clipPath
       id="SVGID_2_"><use
         overflow="visible"
         xlink:href="#SVGID_1_"
         id="use5"
         style="overflow:visible"
         x="0"
         y="0"
         width="100%"
         height="100%" /></clipPath><path
       clip-path="url(#SVGID_2_)"
       d="m 29.364,54.813 c -0.168,0 -0.336,-0.041 -0.49,-0.129 -0.393,-0.22 -0.59,-0.679 -0.478,-1.116 l 1.092,-4.292 h -1.973 c -0.402,0 -0.765,-0.242 -0.921,-0.612 -0.156,-0.371 -0.074,-0.799 0.207,-1.086 l 7.102,-7.255 c 0.315,-0.324 0.81,-0.396 1.204,-0.172 0.395,0.221 0.589,0.68 0.479,1.117 l -1.094,4.294 h 1.972 c 0.402,0 0.765,0.242 0.921,0.612 0.156,0.371 0.074,0.799 -0.207,1.086 l -7.098,7.253 c -0.195,0.196 -0.455,0.3 -0.716,0.3 z m 0.527,-7.537 h 0.882 c 0.308,0 0.599,0.143 0.789,0.387 0.189,0.244 0.255,0.561 0.179,0.859 l -0.493,1.936 2.837,-2.898 h -0.881 c -0.308,0 -0.6,-0.143 -0.79,-0.386 -0.189,-0.244 -0.254,-0.561 -0.178,-0.859 l 0.493,-1.938 z M 45.572,39.405 H 17.274 c -5.547,0 -10.061,-4.513 -10.061,-10.06 0,-5.547 4.514,-10.06 10.061,-10.06 0.66,0 1.336,0.079 2.048,0.242 1.901,-5.295 6.97,-8.914 12.657,-8.914 4.792,0 9.16,2.516 11.58,6.616 0.713,-0.141 1.364,-0.208 2.013,-0.208 6.171,0 11.191,5.021 11.191,11.191 0.001,6.173 -5.02,11.193 -11.191,11.193 z M 17.274,21.285 c -4.445,0 -8.062,3.616 -8.062,8.061 0,4.445 3.617,8.061 8.062,8.061 h 28.298 c 5.068,0 9.192,-4.124 9.192,-9.194 0,-5.069 -4.124,-9.193 -9.192,-9.193 -0.699,0 -1.421,0.102 -2.274,0.32 -0.452,0.115 -0.921,-0.096 -1.136,-0.509 -1.981,-3.835 -5.883,-6.217 -10.183,-6.217 -5.125,0 -9.662,3.453 -11.032,8.397 -0.072,0.261 -0.248,0.481 -0.486,0.611 -0.238,0.129 -0.517,0.154 -0.778,0.075 -0.877,-0.278 -1.666,-0.412 -2.409,-0.412 z"
       id="path8"
       style="fill:#dddddd;fill-opacity:1"
       inkscape:connector-curvature="0" /></g></svg>