<svg width="200" height="200" viewBox="0 0 200 200" class="svg-gauge" xmlns="http://www.w3.org/2000/svg" xmlns:xlink="http://www.w3.org/1999/xlink">
<rect x="0" y="0" width="200" height="200" class="gauge-background" />
<path d="M 18.593612044263 53 A 94 94 0 0 0 18.593612044263 147" class="gauge-bar-0" style="stroke-width: 12" />
<path d="M 181.40638795574 53 A 94 94 0 0 0 18.593612044263 53" class="gauge-bar-1" style="stroke-width: 12" />
<path d="M 181.40638795574 147 A 94 94 0 0 0 181.40638795574 53" class="gauge-bar-2" style="stroke-width: 12" />
<path d="M 151.61511406555 129.8 A 59.6 59.6 0 1 0 48.384885934447 129.8" class="gauge-inner-bar" style="fill: none; stroke-width: 0.8" />
<g class="gauge-scale-values">
<text x="33.056236287463" y="141.65" class="gauge-scale-value" style="font-size: 10; text-anchor: middle">0 </text>
<text x="23.123457488032" y="111.08005021059" class="gauge-scale-value" style="font-size: 10; text-anchor: middle">10</text>
<text x="26.483331290385" y="79.112986334817" class="gauge-scale-value" style="font-size: 10; text-anchor: middle">20</text>
<text x="42.554904990597" y="51.27620412846" class="gauge-scale-value" style="font-size: 10; text-anchor: middle">30</text>
<text x="68.559257490241" y="32.382936124227" class="gauge-scale-value" style="font-size: 10; text-anchor: middle">40</text>
<text x="100" y="25.7" class="gauge-scale-value" style="font-size: 10; text-anchor: middle">50</text>
<text x="131.44074250976" y="32.382936124227" class="gauge-scale-value" style="font-size: 10; text-anchor: middle">60</text>
<text x="157.4450950094" y="51.27620412846" class="gauge-scale-value" style="font-size: 10; text-anchor: middle">70</text>
<text x="173.51666870962" y="79.112986334817" class="gauge-scale-value" style="font-size: 10; text-anchor: middle">80</text>
<text x="176.87654251197" y="111.08005021059" class="gauge-scale-value" style="font-size: 10; text-anchor: middle">90</text>
<text x="166.94376371254" y="141.65" class="gauge-scale-value" style="font-size: 10; text-anchor: middle">100</text>
</g>
<path d="M 92 100 L 100 34.2 L 108 100 Z" class="gauge-needle" transform="rotate(-120, 50%, 50%)" />
<rect x="60" y="140" width="80" height="40" class="gauge-value-display" style="stroke: rgba(184, 184, 184, 0.6); stroke-width: 5; rx: 6" />
<text x="100" y="160" class="gauge-value-display-text" style="text-anchor: middle; alignment-baseline: central; font-size: 30">0 </text>
<text x="124" y="170" class="gauge-value-display-unit" style="font-size: 12; text-anchor: middle">%</text>
</svg>