<?xml version="1.0" encoding="UTF-8" standalone="no"?>
<!-- Generator: Adobe Illustrator 19.1.0, SVG Export Plug-In . SVG Version: 6.00 Build 0)  -->

<svg
   xmlns:dc="http://purl.org/dc/elements/1.1/"
   xmlns:cc="http://creativecommons.org/ns#"
   xmlns:rdf="http://www.w3.org/1999/02/22-rdf-syntax-ns#"
   xmlns:svg="http://www.w3.org/2000/svg"
   xmlns="http://www.w3.org/2000/svg"
   xmlns:sodipodi="http://sodipodi.sourceforge.net/DTD/sodipodi-0.dtd"
   xmlns:inkscape="http://www.inkscape.org/namespaces/inkscape"
   version="1.1"
   id="Layer_1"
   x="0px"
   y="0px"
   viewBox="0 0 60 18"
   xml:space="preserve"
   sodipodi:docname="accu-weather.svg"
   inkscape:version="0.92.3 (2405546, 2018-03-11)"
   width="60"
   height="18"><metadata
   id="metadata35"><rdf:RDF><cc:Work
       rdf:about=""><dc:format>image/svg+xml</dc:format><dc:type
         rdf:resource="http://purl.org/dc/dcmitype/StillImage" /><dc:title></dc:title><dc:title></dc:title></cc:Work></rdf:RDF></metadata><defs
   id="defs33">
	
	
	
	
	
	
	
	
	
	
	
</defs><sodipodi:namedview
   pagecolor="#ffffff"
   bordercolor="#666666"
   borderopacity="1"
   objecttolerance="10"
   gridtolerance="10"
   guidetolerance="10"
   inkscape:pageopacity="0"
   inkscape:pageshadow="2"
   inkscape:window-width="1879"
   inkscape:window-height="1025"
   id="namedview31"
   showgrid="false"
   inkscape:zoom="1.3324325"
   inkscape:cx="-53.889629"
   inkscape:cy="-19.409997"
   inkscape:window-x="41"
   inkscape:window-y="27"
   inkscape:window-maximized="1"
   inkscape:current-layer="Layer_1" />
<style
   type="text/css"
   id="style2">
	.st0{fill:#F05514;}
	.st1{fill-rule:evenodd;clip-rule:evenodd;fill:#F05514;}
</style>

<path
   style="fill:#f05514;stroke-width:1"
   inkscape:connector-curvature="0"
   id="path18"
   d="m 36.975493,7.707113 c -0.394501,0 -0.717274,0.107591 -1.004184,0.286909 -0.251046,0.179319 -0.502092,0.394501 -0.645547,0.681411 -0.179318,0.28691 -0.28691,0.609683 -0.358637,0.932457 -0.07173,0.358637 -0.107591,0.68141 -0.107591,1.004184 0,0.322773 0.03586,0.645547 0.107591,1.004184 0.07173,0.322773 0.179319,0.645547 0.322774,0.896593 0.143454,0.28691 0.358637,0.502092 0.645546,0.681411 0.251046,0.179318 0.57382,0.251046 0.968321,0.251046 0.573819,0 1.040048,-0.179319 1.362821,-0.502093 0.322774,-0.322773 0.502092,-0.789001 0.609683,-1.326957 h 2.367006 c -0.179319,1.183503 -0.609684,2.115959 -1.398685,2.725642 -0.753138,0.609684 -1.757322,0.932457 -2.940825,0.932457 -0.681411,0 -1.291094,-0.107591 -1.864914,-0.322773 -0.573819,-0.215183 -1.040047,-0.537956 -1.434548,-0.932457 -0.394501,-0.394501 -0.717275,-0.896593 -0.932457,-1.434549 -0.215182,-0.573819 -0.322773,-1.183502 -0.322773,-1.864913 0,-0.681411 0.107591,-1.326958 0.286909,-1.936641 0.215183,-0.609683 0.502092,-1.111775 0.896593,-1.54214 0.394501,-0.430364 0.86073,-0.789001 1.434549,-1.004184 0.57382,-0.251046 1.219366,-0.358637 1.936641,-0.358637 0.537956,0 1.040048,0.07173 1.54214,0.215182 0.502092,0.143455 0.932456,0.358638 1.326957,0.645547 0.394501,0.28691 0.717275,0.645547 0.932457,1.075912 0.251046,0.430364 0.394501,0.932456 0.430365,1.506276 h -2.40287 C 38.625224,8.245068 38.051405,7.707113 36.975493,7.707113"
   class="st0" /><path
   style="fill:#f05514;stroke-width:1"
   inkscape:connector-curvature="0"
   id="path20"
   d="m 46.730425,7.707113 c -0.394501,0 -0.717275,0.107591 -1.004185,0.286909 -0.286909,0.179319 -0.502092,0.394501 -0.645546,0.681411 -0.179319,0.28691 -0.28691,0.609683 -0.358638,0.932457 -0.07173,0.358637 -0.107591,0.68141 -0.107591,1.004184 0,0.322773 0.03586,0.645547 0.107591,1.004184 0.07173,0.322773 0.179319,0.645547 0.322774,0.896593 0.143455,0.28691 0.358637,0.502092 0.645547,0.681411 0.286909,0.179318 0.573819,0.251046 0.96832,0.251046 0.57382,0 1.040048,-0.179319 1.362821,-0.502093 0.322774,-0.322773 0.502092,-0.789001 0.609684,-1.326957 h 2.367005 c -0.179319,1.183503 -0.609683,2.115959 -1.398685,2.725642 -0.753138,0.609684 -1.757322,0.932457 -2.940825,0.932457 -0.681411,0 -1.291094,-0.107591 -1.864913,-0.322773 -0.57382,-0.215183 -1.040048,-0.537956 -1.434549,-0.932457 -0.394501,-0.394501 -0.717274,-0.896593 -0.932457,-1.434549 -0.215182,-0.573819 -0.322773,-1.183502 -0.322773,-1.864913 0,-0.681411 0.107591,-1.326958 0.28691,-1.936641 0.215182,-0.609683 0.502092,-1.111775 0.896593,-1.54214 0.394501,-0.430364 0.860729,-0.789001 1.434548,-1.004184 0.57382,-0.251046 1.219367,-0.358637 1.936641,-0.358637 0.537956,0 1.040048,0.07173 1.54214,0.215182 0.502092,0.143455 0.932457,0.358638 1.326958,0.645547 0.3945,0.28691 0.717274,0.645547 0.932456,1.075912 0.251046,0.430364 0.394501,0.932456 0.430365,1.506276 H 48.487747 C 48.416017,8.245068 47.806336,7.707113 46.730425,7.707113"
   class="st0" /><path
   style="fill:#f05514;stroke-width:1"
   inkscape:connector-curvature="0"
   id="path22"
   d="m 27.901973,2.793783 h -2.79737 L 20.442319,15.20263 h 2.618052 l 1.004184,-2.761507 h 4.769874 l 1.004184,2.761507 h 2.689779 z m -3.08428,7.603109 1.685595,-4.554693 1.649731,4.554693 z"
   class="st0" /><path
   style="fill:#f05514;stroke-width:1"
   inkscape:connector-curvature="0"
   id="path24"
   d="m 57.632995,6.093245 v 4.698147 c 0,0.896593 -0.143455,1.578004 -0.430365,1.972505 -0.28691,0.394501 -0.753138,0.609683 -1.398685,0.609683 -0.573819,0 -0.96832,-0.179318 -1.183502,-0.537956 -0.215183,-0.358637 -0.322774,-0.932456 -0.322774,-1.649731 V 6.093245 h -2.367005 v 5.523013 c 0,0.573819 0.03586,1.075911 0.143455,1.506276 0.107591,0.466228 0.251046,0.860729 0.502092,1.147639 0.215182,0.322774 0.537955,0.57382 0.96832,0.753138 0.394501,0.179319 0.932457,0.251046 1.54214,0.251046 0.502092,0 0.96832,-0.107591 1.470412,-0.358637 0.430365,-0.215182 0.824866,-0.57382 1.111776,-1.040048 v 1.219367 H 60 v -9.001794 0 z"
   class="st0" /><path
   style="clip-rule:evenodd;fill:#f05514;fill-rule:evenodd;stroke-width:1"
   inkscape:connector-curvature="0"
   id="path26"
   d="m 5.0209205,5.124925 c 2.1518231,-2.151823 5.6664675,-2.151823 7.8541545,0 2.151823,2.151823 2.151823,5.666467 0,7.854154 -2.151823,2.151823 -5.6664677,2.151823 -7.8541545,0 -2.1518231,-2.187687 -2.1518231,-5.702331 0,-7.854154 m 3.945009,-2.331142 c -3.4429169,0 -6.2402869,2.79737 -6.2402869,6.204424 0,3.442916 2.79737,6.204423 6.2044232,6.204423 3.4429172,0.03586 6.2402872,-2.761507 6.2402872,-6.204423 0,-3.407054 -2.79737,-6.204424 -6.2044235,-6.204424 M 16.712493,4.479378 14.022714,3.905559 13.413031,1.21578 10.794979,2.076509 8.9300658,0.032277 7.0651524,2.076509 4.447101,1.251643 3.8732815,3.941422 1.1835027,4.551105 2.0442319,7.169157 0,9.03407 2.0442319,10.898984 1.2193664,13.517035 3.9091453,14.090854 4.5188285,16.780633 7.1368799,15.955768 9.0017932,18 l 1.8649138,-2.044232 2.618051,0.824865 0.573819,-2.689779 2.689779,-0.609683 -0.860729,-2.653915 2.044232,-1.864913 -2.044232,-1.82905 z"
   class="st1" />
</svg>