<?xml version="1.0" encoding="UTF-8" standalone="no"?>
<svg
   xmlns:dc="http://purl.org/dc/elements/1.1/"
   xmlns:cc="http://creativecommons.org/ns#"
   xmlns:rdf="http://www.w3.org/1999/02/22-rdf-syntax-ns#"
   xmlns:svg="http://www.w3.org/2000/svg"
   xmlns="http://www.w3.org/2000/svg"
   xmlns:xlink="http://www.w3.org/1999/xlink"
   xmlns:sodipodi="http://sodipodi.sourceforge.net/DTD/sodipodi-0.dtd"
   xmlns:inkscape="http://www.inkscape.org/namespaces/inkscape"
   width="245px"
   height="80px"
   viewBox="0 0 245 80"
   version="1.1"
   id="svg15"
   sodipodi:docname="arso-weather.svg"
   inkscape:version="0.92.3 (2405546, 2018-03-11)">
  <metadata
     id="metadata19">
    <rdf:RDF>
      <cc:Work
         rdf:about="">
        <dc:format>image/svg+xml</dc:format>
        <dc:type
           rdf:resource="http://purl.org/dc/dcmitype/StillImage" />
      </cc:Work>
    </rdf:RDF>
  </metadata>
  <sodipodi:namedview
     pagecolor="#ffffff"
     bordercolor="#666666"
     borderopacity="1"
     objecttolerance="10"
     gridtolerance="10"
     guidetolerance="10"
     inkscape:pageopacity="0"
     inkscape:pageshadow="2"
     inkscape:window-width="1879"
     inkscape:window-height="1025"
     id="namedview17"
     showgrid="false"
     inkscape:zoom="3.8558966"
     inkscape:cx="86.260999"
     inkscape:cy="31.329881"
     inkscape:window-x="41"
     inkscape:window-y="27"
     inkscape:window-maximized="1"
     inkscape:current-layer="svg15" />
  <!-- Generator: Sketch 48.2 (47327) - http://www.bohemiancoding.com/sketch -->
  <title
     id="title2">Logo finals/logo-full-windy-community-gray</title>
  <desc
     id="desc4">Created with Sketch.</desc>
  <defs
     id="defs6" />
  <text
     xml:space="preserve"
     style="font-style:normal;font-variant:normal;font-weight:normal;font-stretch:normal;font-size:67.47097778px;line-height:1.25;font-family:'Padauk Book';-inkscape-font-specification:'Padauk Book, ';letter-spacing:0px;word-spacing:0px;fill:#666666;fill-opacity:1;stroke:none;stroke-width:0.99999994"
     x="78.186729"
     y="58.241055"
     id="text903"><tspan
       sodipodi:role="line"
       id="tspan901"
       x="78.186729"
       y="58.241055"
       style="stroke-width:0.99999994">ARSO</tspan></text>
  <g
     id="g4637"
     transform="matrix(0.76817063,0,0,0.76817063,-82.62398,94.600094)">
    <path
       inkscape:connector-curvature="0"
       id="path27260"
       style="fill:#ffffff;fill-opacity:1;fill-rule:evenodd;stroke:#509fba;stroke-width:1.3333261;stroke-linecap:butt;stroke-linejoin:miter;stroke-miterlimit:4;stroke-dasharray:none;stroke-opacity:1"
       d="m 147.93486,-115.51866 c -14.09616,0.0177 -27.44826,4.37574 -36.81724,8.59027 l 2.84226,44.519353 c 1.9693,23.264442 17.12971,36.80909 33.97498,42.12795 16.84527,-5.31886 32.00569,-18.863508 33.97498,-42.12795 l 2.82655,-44.377973 c -9.43182,-4.88214 -22.70537,-8.61974 -36.80153,-8.73165 z" />
    <path
       inkscape:connector-curvature="0"
       id="rect23499"
       style="fill:#509fba;fill-opacity:1;fill-rule:evenodd;stroke:none;stroke-width:1.00000003pt;stroke-linecap:butt;stroke-linejoin:miter;stroke-opacity:0.43220341"
       d="m 147.92701,-115.51866 c -13.08577,0.0172 -25.4808,3.34557 -34.17822,7.44312 l 2.63853,44.192376 c 1.82814,22.618707 15.90187,35.787407 31.53969,40.958635 15.63782,-5.171228 29.71154,-18.339928 31.53968,-40.958635 l 2.63853,-44.192376 c -8.69742,-4.09755 -21.09245,-7.42595 -34.17821,-7.44312 z" />
    <path
       inkscape:connector-curvature="0"
       id="rect28503"
       style="fill:#ffffff;fill-opacity:1;fill-rule:evenodd;stroke:none;stroke-width:1.00000003pt;stroke-linecap:butt;stroke-linejoin:miter;stroke-opacity:1"
       d="m 147.93437,-84.711566 -8.31445,16.236187 -5.37524,-6.98291 -14.04559,18.561778 c 0.25384,1.15219 0.55195,2.264368 0.87746,3.350324 1.56869,2.647443 4.58316,5.669782 8.44944,5.66978 3.06807,0 6.13613,-2.454448 9.20419,-2.45445 3.06807,0 6.13613,2.454452 9.20419,2.45445 3.06806,0 6.13612,-2.454448 9.20419,-2.45445 3.06806,0 6.13612,2.454452 9.20419,2.45445 3.83134,0 6.82572,-2.966174 8.40649,-5.596146 0.3374,-1.115063 0.64046,-2.263565 0.90201,-3.448503 l -14.02719,-18.537233 -5.37524,6.98291 z m -9.20419,36.835159 c -3.06806,0 -6.13612,2.454452 -9.20419,2.45445 -2.42818,0 -4.51412,-0.86 -6.12998,-2.080147 0.57062,1.211079 1.17422,2.388922 1.8347,3.503728 1.26575,0.787052 2.70426,1.319269 4.29528,1.319267 3.06807,0 6.13613,-2.454452 9.20419,-2.45445 3.06807,0 6.13613,2.454454 9.20419,2.45445 3.06806,0 6.13612,-2.454452 9.20419,-2.45445 3.06806,0 6.13612,2.454454 9.20419,2.45445 1.56857,0 2.98703,-0.52035 4.24006,-1.288587 0.66018,-1.111198 1.26336,-2.284992 1.8347,-3.491455 -1.6082,1.197358 -3.67487,2.037194 -6.07476,2.037194 -3.06807,0 -6.13613,-2.454448 -9.20419,-2.45445 -3.06807,0 -6.13613,2.454452 -9.20419,2.45445 -3.06806,0 -6.13612,-2.454448 -9.20419,-2.45445 z m 0,5.197298 c -3.06806,0 -6.13612,2.454454 -9.20419,2.45445 -0.66657,0 -1.30044,-0.07808 -1.91447,-0.196356 5.30791,7.091078 12.54952,11.837649 20.31671,14.56716 7.75116,-2.725014 14.98132,-7.474976 20.28603,-14.554888 -0.6005,0.11285 -1.22106,0.184084 -1.87151,0.184084 -3.06807,0 -6.13613,-2.454446 -9.20419,-2.45445 -3.06807,0 -6.13613,2.454454 -9.20419,2.45445 -3.06806,0 -6.13612,-2.454446 -9.20419,-2.45445 z" />
    <g
       style="fill:#ffffff;fill-opacity:1;stroke:none;stroke-opacity:1"
       id="g7446"
       transform="translate(0,-6.7e-4)">
      <path
         inkscape:connector-curvature="0"
         id="path34720"
         style="fill:#ffffff;fill-opacity:1;fill-rule:evenodd;stroke:none;stroke-width:1.00000003pt;stroke-linecap:butt;stroke-linejoin:miter;stroke-opacity:1"
         d="m 134.0937,-109.56066 h 6.96082 l -3.48041,6.02733" />
      <use
         style="fill:#ffffff;fill-opacity:1;stroke:none;stroke-opacity:1"
         xlink:href="#path34720"
         height="300"
         width="600"
         y="0"
         x="0"
         id="use7444"
         transform="matrix(1,0,0,-1,3e-4,-215.1037)" />
    </g>
    <use
       style="fill:#ffffff;fill-opacity:1;stroke:none;stroke-opacity:1"
       xlink:href="#g7446"
       height="300"
       width="600"
       y="0"
       x="0"
       id="use7450"
       transform="translate(20.7203)" />
    <use
       style="fill:#ffffff;fill-opacity:1;stroke:none;stroke-opacity:1"
       xlink:href="#g7446"
       height="300"
       width="600"
       y="0"
       x="0"
       id="use7452"
       transform="translate(10.3603,13.875)" />
  </g>
</svg>
