<?xml version="1.0" encoding="UTF-8" standalone="no"?>
<!-- Generator: Adobe Illustrator 19.0.0, SVG Export Plug-In . SVG Version: 6.00 Build 0)  -->

<svg
   xmlns:dc="http://purl.org/dc/elements/1.1/"
   xmlns:cc="http://creativecommons.org/ns#"
   xmlns:rdf="http://www.w3.org/1999/02/22-rdf-syntax-ns#"
   xmlns:svg="http://www.w3.org/2000/svg"
   xmlns="http://www.w3.org/2000/svg"
   xmlns:xlink="http://www.w3.org/1999/xlink"
   xmlns:sodipodi="http://sodipodi.sourceforge.net/DTD/sodipodi-0.dtd"
   xmlns:inkscape="http://www.inkscape.org/namespaces/inkscape"
   version="1.1"
   id="Layer_1"
   x="0px"
   y="0px"
   viewBox="-146 -462 60.000001 16"
   xml:space="preserve"
   sodipodi:docname="open-weather.svg"
   inkscape:version="0.92.3 (2405546, 2018-03-11)"
   width="60"
   height="16"><metadata
   id="metadata60"><rdf:RDF><cc:Work
       rdf:about=""><dc:format>image/svg+xml</dc:format><dc:type
         rdf:resource="http://purl.org/dc/dcmitype/StillImage" /><dc:title></dc:title></cc:Work></rdf:RDF></metadata><defs
   id="defs58">
	

		
			
		
	</defs><sodipodi:namedview
   pagecolor="#ffffff"
   bordercolor="#666666"
   borderopacity="1"
   objecttolerance="10"
   gridtolerance="10"
   guidetolerance="10"
   inkscape:pageopacity="0"
   inkscape:pageshadow="2"
   inkscape:window-width="1879"
   inkscape:window-height="1025"
   id="namedview56"
   showgrid="false"
   inkscape:zoom="9.7978643"
   inkscape:cx="26.337888"
   inkscape:cy="10.686887"
   inkscape:window-x="41"
   inkscape:window-y="27"
   inkscape:window-maximized="1"
   inkscape:current-layer="Layer_1" />
<style
   type="text/css"
   id="style2">
	.st0{fill:#FF8C18;}
	.st1{display:none;fill:#615F5C;}
	.st2{display:none;fill:none;stroke:#000000;stroke-width:0.7;}
	.st3{display:none;fill:#FF8C16;}
	.st4{clip-path:url(#SVGID_2_);fill:#FF8C18;}
</style>
<desc
   codePlatform="0"
   iVinci="yes"
   showGrid="no"
   gridStep="20"
   snapToGrid="no"
   version="4.6"
   id="desc4" />

<g
   id="g864"><path
     inkscape:connector-curvature="0"
     d="m -93.722626,-449.08607 h 2.316415 v -5.40993 c 0.676706,-1.03737 1.383157,-1.55791 2.119353,-1.55791 0.646961,0 0.970441,0.4908 0.970441,1.46495 v 5.50289 h 2.316415 v -6.07548 c 0,-0.84031 -0.223089,-1.50214 -0.665551,-1.98922 -0.442461,-0.48708 -1.048522,-0.72876 -1.814463,-0.72876 -1.193531,0 -2.171408,0.60234 -2.926195,1.81446 v -1.62112 h -2.316415 v 8.5964 m -7.759804,-5.14222 c 0.15244,-1.46868 0.71017,-2.20116 1.669453,-2.20116 0.944413,0 1.41662,0.7362 1.41662,2.20116 h -3.086073 m 5.361589,4.8522 v -1.62112 c -0.974159,0.36066 -1.851646,0.53913 -2.628742,0.53913 -1.643427,0 -2.543227,-0.81799 -2.699387,-2.4577 h 5.331847 c 0,-1.71779 -0.290017,-2.97453 -0.87005,-3.7665 -0.580034,-0.79197 -1.49842,-1.18981 -2.755159,-1.18981 -1.249298,0 -2.253208,0.40528 -3.011708,1.21584 -0.75851,0.81056 -1.13776,1.88139 -1.13776,3.21249 0,1.40918 0.41643,2.52091 1.24558,3.33519 0.83287,0.81428 1.96319,1.21956 3.398404,1.21956 0.985313,0 2.030117,-0.1636 3.130693,-0.48708 m -15.303957,-1.95575 v -3.40212 c 0.63209,-0.88121 1.2902,-1.32367 1.97434,-1.32367 1.13404,0 1.6992,0.87749 1.6992,2.63618 0,0.91839 -0.17103,1.65458 -0.50939,2.20487 -0.33835,0.55029 -0.79196,0.82543 -1.36084,0.82543 -0.63581,0 -1.23443,-0.31604 -1.79959,-0.94069 M -113.73378,-446 h 2.32013 v -3.95984 c 0.73248,0.71017 1.54676,1.06339 2.45027,1.06339 1.12289,0 2.01525,-0.42759 2.68452,-1.28276 0.66555,-0.85518 1.00018,-2.00409 1.00018,-3.44302 0,-1.32367 -0.29745,-2.36476 -0.88864,-3.12326 -0.5949,-0.75479 -1.40546,-1.13404 -2.43911,-1.13404 -1.27905,0 -2.21603,0.60234 -2.81093,1.81446 v -1.62112 h -2.31642 V -446 m -8.087,-4.39859 c -0.9816,0 -1.76985,-0.40899 -2.36847,-1.23071 -0.59863,-0.82171 -0.8998,-1.91113 -0.8998,-3.26083 0,-1.36085 0.30117,-2.45027 0.90351,-3.26454 0.60235,-0.81428 1.40547,-1.21956 2.41309,-1.21956 0.99647,0 1.79587,0.40528 2.40194,1.21956 0.60606,0.81427 0.90723,1.89626 0.90723,3.24223 0,1.38688 -0.30117,2.48745 -0.90352,3.29801 -0.60234,0.81056 -1.42033,1.21584 -2.45398,1.21584 m -0.0298,1.59881 c 1.84049,0 3.29429,-0.54657 4.35769,-1.63599 1.05967,-1.08942 1.59137,-2.5804 1.59137,-4.46923 0,-1.84793 -0.52798,-3.3166 -1.59137,-4.41346 -1.0634,-1.09686 -2.49117,-1.64343 -4.27961,-1.64343 -1.80331,0 -3.23108,0.54657 -4.29076,1.64343 -1.05967,1.09686 -1.58765,2.57669 -1.58765,4.43949 0,1.84049 0.52426,3.3166 1.58022,4.42089 1.05595,1.1043 2.46142,1.6583 4.22011,1.6583"
     style="fill:#ff8c18;stroke-width:0.99999994"
     id="path945" /><g
     style="stroke-width:26.89500046"
     transform="matrix(0.03718163,0,0,0.03718163,-140.57148,-444.47183)"
     id="g53">
	<rect
   style="display:none;fill:#615f5c;stroke-width:26.89500046"
   id="rect11"
   height="383"
   width="390.70001"
   class="st1"
   y="-439.20001"
   x="-135" />
	<rect
   style="display:none;fill:none;stroke:#000000;stroke-width:18.82649994"
   id="rect13"
   height="383"
   width="390.70001"
   class="st2"
   y="-439.20001"
   x="-135" />
	<path
   style="display:none;fill:#ff8c16;stroke-width:26.89500046"
   inkscape:connector-curvature="0"
   id="path15"
   d="m 17,-283.4 c 0,-1.9 0.3,-3.5 0.9,-4.8 0.4,-1 1,-1.8 1.7,-2.6 0.7,-0.8 1.5,-1.3 2.4,-1.7 1.2,-0.5 2.5,-0.7 4,-0.7 2.7,0 4.9,0.9 6.6,2.6 1.6,1.7 2.5,4.1 2.5,7.1 0,3 -0.8,5.4 -2.5,7.1 -1.6,1.7 -3.8,2.5 -6.6,2.5 -2.8,0 -5,-0.8 -6.6,-2.5 -1.6,-1.7 -2.4,-4.1 -2.4,-7 z m 3.9,-0.2 c 0,2.1 0.5,3.7 1.5,4.8 1,1.1 2.2,1.6 3.7,1.6 1.5,0 2.7,-0.5 3.7,-1.6 1,-1.1 1.4,-2.7 1.4,-4.9 0,-2.1 -0.5,-3.7 -1.4,-4.8 -0.9,-1.1 -2.2,-1.6 -3.7,-1.6 -1.5,0 -2.8,0.5 -3.7,1.6 -1,1.2 -1.5,2.8 -1.5,4.9 z m 0,0"
   class="st3" />
	<path
   style="display:none;fill:#ff8c16;stroke-width:26.89500046"
   inkscape:connector-curvature="0"
   id="path17"
   d="m 39,-287.7 h 3.3 v 2 c 0.4,-0.7 1,-1.2 1.8,-1.7 0.7,-0.4 1.6,-0.6 2.5,-0.6 1.6,0 2.9,0.6 4,1.8 1.1,1.2 1.6,2.9 1.6,5.1 0,2.3 -0.5,4 -1.6,5.3 -1.1,1.2 -2.4,1.9 -4,1.9 -0.7,0 -1.4,-0.1 -2,-0.4 -0.6,-0.3 -1.2,-0.8 -1.9,-1.5 v 6.8 H 39 Z m 3.6,6.5 c 0,1.5 0.3,2.6 0.9,3.4 0.6,0.7 1.3,1.1 2.2,1.1 0.8,0 1.5,-0.3 2.1,-1 0.6,-0.7 0.8,-1.8 0.8,-3.3 0,-1.4 -0.3,-2.5 -0.9,-3.1 -0.6,-0.7 -1.3,-1 -2.1,-1 -0.9,0 -1.6,0.3 -2.2,1 -0.5,0.6 -0.8,1.6 -0.8,2.9 z m 0,0"
   class="st3" />
	<path
   style="display:none;fill:#ff8c16;stroke-width:26.89500046"
   inkscape:connector-curvature="0"
   id="path19"
   d="m 64.2,-278.5 3.6,0.6 c -0.5,1.3 -1.2,2.3 -2.2,3 -1,0.7 -2.2,1 -3.7,1 -2.3,0 -4.1,-0.8 -5.2,-2.3 -0.9,-1.2 -1.3,-2.8 -1.3,-4.6 0,-2.2 0.6,-4 1.7,-5.3 1.2,-1.3 2.6,-1.9 4.4,-1.9 2,0 3.6,0.7 4.7,2 1.2,1.3 1.7,3.4 1.7,6.1 H 59 c 0,1.1 0.3,1.9 0.9,2.5 0.6,0.6 1.2,0.9 2.1,0.9 0.6,0 1,-0.2 1.4,-0.5 0.3,-0.4 0.6,-0.9 0.8,-1.5 z m 0.2,-3.6 c 0,-1 -0.3,-1.8 -0.8,-2.4 -0.5,-0.5 -1.1,-0.8 -1.9,-0.8 -0.8,0 -1.4,0.3 -1.9,0.9 -0.5,0.6 -0.8,1.3 -0.8,2.3 z m 0,0"
   class="st3" />
	<path
   style="display:none;fill:#ff8c16;stroke-width:26.89500046"
   inkscape:connector-curvature="0"
   id="path21"
   d="m 83.9,-274.2 h -3.6 v -6.9 c 0,-1.5 -0.1,-2.4 -0.2,-2.8 -0.2,-0.4 -0.4,-0.8 -0.7,-1 -0.3,-0.2 -0.8,-0.4 -1.2,-0.4 -0.6,0 -1.2,0.2 -1.7,0.5 -0.5,0.3 -0.8,0.8 -1,1.3 -0.2,0.6 -0.3,1.6 -0.3,3.1 v 6.1 h -3.6 v -13.5 h 3.3 v 2 c 1.2,-1.5 2.7,-2.3 4.4,-2.3 0.8,0 1.5,0.1 2.2,0.4 0.6,0.3 1.1,0.6 1.5,1.1 0.3,0.4 0.6,0.9 0.7,1.5 0.1,0.6 0.2,1.4 0.2,2.4 z m 0,0"
   class="st3" />
	<path
   style="display:none;fill:#ff8c16;stroke-width:26.89500046"
   inkscape:connector-curvature="0"
   id="path23"
   d="M 20.4,-241.2 16,-259.9 h 3.8 l 2.8,12.8 3.4,-12.8 h 4.5 l 3.3,13 2.9,-13 h 3.8 l -4.5,18.6 h -4 l -3.7,-13.9 -3.7,13.9 h -4.2 z m 0,0"
   class="st3" />
	<path
   style="display:none;fill:#ff8c16;stroke-width:26.89500046"
   inkscape:connector-curvature="0"
   id="path25"
   d="m 48.8,-245.5 3.6,0.6 c -0.5,1.3 -1.2,2.3 -2.2,3 -1,0.7 -2.2,1 -3.7,1 -2.3,0 -4.1,-0.8 -5.2,-2.3 -0.9,-1.2 -1.3,-2.8 -1.3,-4.6 0,-2.2 0.6,-4 1.8,-5.3 1.2,-1.3 2.6,-1.9 4.4,-1.9 2,0 3.6,0.7 4.7,2 1.2,1.3 1.7,3.4 1.7,6.1 h -8.9 c 0,1.1 0.3,1.9 0.9,2.5 0.6,0.6 1.2,0.9 2.1,0.9 0.6,0 1,-0.2 1.4,-0.5 0.2,-0.4 0.5,-0.9 0.7,-1.5 z m 0.2,-3.6 c 0,-1 -0.3,-1.8 -0.8,-2.4 -0.5,-0.5 -1.1,-0.8 -1.9,-0.8 -0.8,0 -1.4,0.3 -1.9,0.9 -0.5,0.6 -0.8,1.3 -0.8,2.3 z m 0,0"
   class="st3" />
	<path
   style="display:none;fill:#ff8c16;stroke-width:26.89500046"
   inkscape:connector-curvature="0"
   id="path27"
   d="m 58.9,-250.6 -3.2,-0.6 c 0.4,-1.3 1,-2.3 1.9,-2.9 0.9,-0.6 2.2,-0.9 4,-0.9 1.6,0 2.8,0.2 3.6,0.6 0.8,0.4 1.3,0.9 1.6,1.4 0.3,0.6 0.5,1.6 0.5,3.2 v 4.2 c 0,1.2 0.1,2.1 0.2,2.6 0.1,0.6 0.3,1.2 0.6,1.8 h -3.5 c -0.1,-0.2 -0.2,-0.6 -0.3,-1.1 -0.1,-0.2 -0.1,-0.4 -0.1,-0.4 -0.6,0.6 -1.3,1 -2,1.3 -0.7,0.3 -1.4,0.4 -2.2,0.4 -1.4,0 -2.5,-0.4 -3.3,-1.1 -0.8,-0.8 -1.2,-1.7 -1.2,-2.9 0,-0.8 0.2,-1.4 0.5,-2 0.4,-0.6 0.9,-1.1 1.5,-1.4 0.7,-0.3 1.6,-0.6 2.8,-0.8 1.7,-0.3 2.8,-0.6 3.5,-0.9 v -0.4 c 0,-0.7 -0.2,-1.2 -0.5,-1.5 -0.3,-0.3 -1,-0.4 -1.9,-0.4 -0.6,0 -1.1,0.1 -1.5,0.4 -0.5,0.3 -0.8,0.8 -1,1.4 z m 4.8,2.9 c -0.5,0.2 -1.2,0.3 -2.2,0.5 -1,0.2 -1.6,0.4 -1.9,0.6 -0.5,0.3 -0.7,0.8 -0.7,1.3 0,0.5 0.2,0.9 0.6,1.3 0.4,0.4 0.8,0.5 1.4,0.5 0.6,0 1.3,-0.2 1.8,-0.6 0.4,-0.3 0.7,-0.7 0.9,-1.2 0.1,-0.3 0.1,-0.9 0.1,-1.7 z m 0,0"
   class="st3" />
	<path
   style="display:none;fill:#ff8c16;stroke-width:26.89500046"
   inkscape:connector-curvature="0"
   id="path29"
   d="m 77.7,-254.7 v 2.8 h -2.4 v 5.4 c 0,1.1 0,1.7 0.1,1.9 0,0.2 0.2,0.3 0.3,0.4 0.2,0.1 0.4,0.2 0.6,0.2 0.3,0 0.8,-0.1 1.4,-0.3 l 0.3,2.8 c -0.8,0.4 -1.8,0.5 -2.8,0.5 -0.6,0 -1.2,-0.1 -1.7,-0.3 -0.5,-0.2 -0.9,-0.5 -1.1,-0.8 -0.2,-0.3 -0.4,-0.8 -0.5,-1.4 -0.1,-0.4 -0.1,-1.3 -0.1,-2.5 v -5.9 h -1.6 v -2.8 h 1.6 v -2.7 l 3.6,-2.1 v 4.8 z m 0,0"
   class="st3" />
	<path
   style="display:none;fill:#ff8c16;stroke-width:26.89500046"
   inkscape:connector-curvature="0"
   id="path31"
   d="m 85.6,-259.9 v 6.8 c 1.1,-1.3 2.5,-2 4.1,-2 0.8,0 1.6,0.2 2.2,0.5 0.7,0.3 1.2,0.7 1.5,1.2 0.3,0.5 0.6,1 0.7,1.6 0.1,0.6 0.2,1.5 0.2,2.7 v 7.9 h -3.6 v -7.1 c 0,-1.4 -0.1,-2.3 -0.2,-2.7 -0.1,-0.4 -0.4,-0.7 -0.7,-0.9 -0.3,-0.2 -0.8,-0.3 -1.3,-0.3 -0.6,0 -1.1,0.1 -1.6,0.4 -0.5,0.3 -0.8,0.7 -1,1.3 -0.2,0.6 -0.3,1.4 -0.3,2.6 v 6.8 H 82 v -18.6 h 3.6 z m 0,0"
   class="st3" />
	<path
   style="display:none;fill:#ff8c16;stroke-width:26.89500046"
   inkscape:connector-curvature="0"
   id="path33"
   d="m 107,-245.5 3.6,0.6 c -0.5,1.3 -1.2,2.3 -2.2,3 -1,0.7 -2.2,1 -3.7,1 -2.3,0 -4.1,-0.8 -5.2,-2.3 -0.9,-1.2 -1.3,-2.8 -1.3,-4.6 0,-2.2 0.6,-4 1.8,-5.3 1.2,-1.3 2.6,-1.9 4.4,-1.9 2,0 3.6,0.7 4.7,2 1.2,1.3 1.7,3.4 1.7,6.1 h -8.9 c 0,1.1 0.3,1.9 0.9,2.5 0.5,0.6 1.2,0.9 2.1,0.9 0.6,0 1,-0.2 1.4,-0.5 0.2,-0.4 0.5,-0.9 0.7,-1.5 z m 0.2,-3.6 c 0,-1 -0.3,-1.8 -0.8,-2.4 -0.5,-0.5 -1.1,-0.8 -1.9,-0.8 -0.8,0 -1.4,0.3 -1.9,0.9 -0.5,0.6 -0.8,1.3 -0.8,2.3 z m 0,0"
   class="st3" />
	<path
   style="display:none;fill:#ff8c16;stroke-width:26.89500046"
   inkscape:connector-curvature="0"
   id="path35"
   d="m 117.8,-241.2 h -3.6 v -13.5 h 3.3 v 1.9 c 0.6,-0.9 1.1,-1.5 1.5,-1.8 0.5,-0.3 1,-0.4 1.5,-0.4 0.8,0 1.6,0.2 2.3,0.7 l -1.1,3.1 c -0.6,-0.4 -1.2,-0.6 -1.7,-0.6 -0.5,0 -0.9,0.1 -1.3,0.4 -0.3,0.3 -0.6,0.8 -0.8,1.5 -0.2,0.7 -0.3,2.2 -0.3,4.5 v 4.2 z m 0,0"
   class="st3" />
	<path
   style="display:none;fill:#ff8c16;stroke-width:26.89500046"
   inkscape:connector-curvature="0"
   id="path37"
   d="m 17.7,-208.2 v -18.6 h 5.6 l 3.4,12.7 3.3,-12.7 h 5.6 v 18.6 h -3.5 v -14.7 l -3.7,14.7 h -3.6 l -3.7,-14.7 v 14.7 z m 0,0"
   class="st3" />
	<path
   style="display:none;fill:#ff8c16;stroke-width:26.89500046"
   inkscape:connector-curvature="0"
   id="path39"
   d="m 44,-217.6 -3.2,-0.6 c 0.4,-1.3 1,-2.3 1.9,-2.9 0.9,-0.6 2.2,-0.9 4,-0.9 1.6,0 2.8,0.2 3.6,0.6 0.8,0.4 1.3,0.9 1.6,1.4 0.3,0.6 0.5,1.6 0.5,3.2 v 4.2 c 0,1.2 0.1,2.1 0.2,2.6 0.1,0.6 0.3,1.2 0.6,1.8 h -3.5 c -0.1,-0.2 -0.2,-0.6 -0.3,-1.1 -0.1,-0.2 -0.1,-0.4 -0.1,-0.4 -0.6,0.6 -1.3,1 -2,1.3 -0.7,0.3 -1.4,0.4 -2.2,0.4 -1.4,0 -2.5,-0.4 -3.3,-1.1 -0.8,-0.8 -1.2,-1.7 -1.2,-2.9 0,-0.8 0.2,-1.4 0.5,-2 0.4,-0.6 0.9,-1.1 1.5,-1.4 0.7,-0.3 1.6,-0.6 2.8,-0.8 1.7,-0.3 2.8,-0.6 3.5,-0.9 v -0.4 c 0,-0.7 -0.2,-1.2 -0.5,-1.5 -0.3,-0.3 -1,-0.4 -1.9,-0.4 -0.6,0 -1.1,0.1 -1.5,0.4 -0.5,0.3 -0.7,0.8 -1,1.4 z m 4.8,2.9 c -0.5,0.2 -1.2,0.3 -2.2,0.5 -1,0.2 -1.6,0.4 -1.9,0.6 -0.5,0.3 -0.7,0.8 -0.7,1.3 0,0.5 0.2,0.9 0.6,1.3 0.4,0.4 0.8,0.5 1.4,0.5 0.6,0 1.3,-0.2 1.8,-0.6 0.4,-0.3 0.7,-0.7 0.9,-1.2 0.1,-0.3 0.1,-0.9 0.1,-1.7 z m 0,0"
   class="st3" />
	<path
   style="display:none;fill:#ff8c16;stroke-width:26.89500046"
   inkscape:connector-curvature="0"
   id="path41"
   d="m 56.5,-221.7 h 3.3 v 2 c 0.4,-0.7 1,-1.2 1.8,-1.6 0.7,-0.4 1.6,-0.6 2.5,-0.6 1.6,0 2.9,0.6 4,1.8 1.1,1.2 1.6,2.9 1.6,5.1 0,2.3 -0.6,4 -1.7,5.3 -1.1,1.3 -2.4,1.9 -4,1.9 -0.7,0 -1.4,-0.1 -2,-0.4 -0.6,-0.3 -1.2,-0.8 -1.9,-1.5 v 6.8 h -3.6 z m 3.6,6.5 c 0,1.5 0.3,2.6 0.9,3.4 0.6,0.7 1.3,1.1 2.2,1.1 0.8,0 1.5,-0.3 2.1,-1 0.5,-0.7 0.8,-1.8 0.8,-3.3 0,-1.4 -0.3,-2.5 -0.9,-3.1 -0.6,-0.7 -1.3,-1 -2.1,-1 -0.9,0 -1.6,0.3 -2.2,1 -0.6,0.6 -0.8,1.6 -0.8,2.9 z m 0,0"
   class="st3" />
	<g
   style="stroke-width:26.89500046"
   id="g51">
		<defs
   id="defs44">
			<rect
   height="419.79999"
   width="419.79999"
   y="-462"
   x="-146"
   id="SVGID_1_" />
		</defs>
		<clipPath
   id="SVGID_2_">
			<use
   height="100%"
   width="100%"
   y="0"
   x="0"
   id="use46"
   style="overflow:visible"
   xlink:href="#SVGID_1_" />
		</clipPath>
		<path
   style="fill:#ff8c18;stroke-width:26.89500046"
   inkscape:connector-curvature="0"
   id="path49"
   clip-path="url(#SVGID_2_)"
   d="m -146,-462.2 h 420 v 420 h -420 z m 248.3,314.5 c -11.9,4.4 -24.8,6.8 -38.3,6.8 -13.5,0 -26.4,-2.4 -38.3,-6.8 L 64,-70.1 Z m -139.2,-57.7 -27.8,82 82,-27.8 c -23.9,-11.1 -43.2,-30.4 -54.2,-54.2 z m 201.8,0 c -11.1,23.9 -30.3,43.1 -54.2,54.2 l 82,27.8 z M 64,-336.1 c -48.7,0 -88.1,37.6 -88.1,83.9 0,46.3 39.4,83.9 88.1,83.9 48.6,0 88.1,-37.6 88.1,-83.9 0,-46.3 -39.5,-83.9 -88.1,-83.9 z m -104.5,45.6 -77.6,38.3 77.6,38.3 c -4.4,-11.9 -6.8,-24.8 -6.8,-38.3 0,-13.4 2.4,-26.3 6.8,-38.3 z m 209,0 c 4.4,11.9 6.8,24.8 6.8,38.3 0,13.5 -2.4,26.4 -6.8,38.3 l 77.6,-38.3 z M -64.8,-381 -37,-299 c 11.1,-23.8 30.3,-43.1 54.2,-54.2 z m 257.6,0 -82,27.8 c 23.9,11.1 43.1,30.3 54.2,54.2 z M 64,-434.3 25.7,-356.7 c 11.9,-4.4 24.8,-6.8 38.3,-6.8 13.5,0 26.4,2.4 38.3,6.8 z m 0,0"
   class="st4" />
	</g>
</g></g>
</svg>