<?xml version="1.0" encoding="UTF-8" standalone="no"?>
<svg
   xmlns:dc="http://purl.org/dc/elements/1.1/"
   xmlns:cc="http://creativecommons.org/ns#"
   xmlns:rdf="http://www.w3.org/1999/02/22-rdf-syntax-ns#"
   xmlns:svg="http://www.w3.org/2000/svg"
   xmlns="http://www.w3.org/2000/svg"
   xmlns:sodipodi="http://sodipodi.sourceforge.net/DTD/sodipodi-0.dtd"
   xmlns:inkscape="http://www.inkscape.org/namespaces/inkscape"
   width="245px"
   height="80px"
   viewBox="0 0 245 80"
   version="1.1"
   id="svg15"
   sodipodi:docname="windy-weather.svg"
   inkscape:version="0.92.3 (2405546, 2018-03-11)">
  <metadata
     id="metadata19">
    <rdf:RDF>
      <cc:Work
         rdf:about="">
        <dc:format>image/svg+xml</dc:format>
        <dc:type
           rdf:resource="http://purl.org/dc/dcmitype/StillImage" />
      </cc:Work>
    </rdf:RDF>
  </metadata>
  <sodipodi:namedview
     pagecolor="#ffffff"
     bordercolor="#666666"
     borderopacity="1"
     objecttolerance="10"
     gridtolerance="10"
     guidetolerance="10"
     inkscape:pageopacity="0"
     inkscape:pageshadow="2"
     inkscape:window-width="951"
     inkscape:window-height="647"
     id="namedview17"
     showgrid="false"
     inkscape:zoom="1.3632653"
     inkscape:cx="122.5"
     inkscape:cy="40"
     inkscape:window-x="594"
     inkscape:window-y="68"
     inkscape:window-maximized="0"
     inkscape:current-layer="svg15" />
  <!-- Generator: Sketch 48.2 (47327) - http://www.bohemiancoding.com/sketch -->
  <title
     id="title2">Logo finals/logo-full-windy-community-gray</title>
  <desc
     id="desc4">Created with Sketch.</desc>
  <defs
     id="defs6" />
  <path
     d="m 123.93,59.974 -7.13,-25.42 -7.13,25.42 c -0.434,1.55 -1.798,2.666 -3.472,2.666 -1.612,0 -2.976,-1.054 -3.41,-2.48 L 92.186,24.634 C 92.062,24.262 92,23.952 92,23.518 c 0,-1.984 1.612,-3.596 3.596,-3.596 1.984,0 3.1,1.426 3.41,2.48 l 7.254,26.04 7.068,-25.916 c 0.434,-1.612 1.922,-2.604 3.472,-2.604 1.55,0 3.038,0.992 3.472,2.604 l 7.068,25.916 7.254,-26.04 c 0.31,-1.054 1.426,-2.48 3.41,-2.48 1.984,0 3.596,1.612 3.596,3.596 0,0.434 -0.062,0.744 -0.186,1.116 L 130.812,60.16 c -0.434,1.426 -1.798,2.48 -3.41,2.48 -1.674,0 -3.038,-1.116 -3.472,-2.666 z m 28.644,-23.126 v 22.444 c 0,1.86 -1.488,3.348 -3.348,3.348 -1.86,0 -3.348,-1.488 -3.348,-3.348 V 36.848 c 0,-1.86 1.488,-3.348 3.348,-3.348 1.86,0 3.348,1.488 3.348,3.348 z m -3.348,-6.696 c -2.542,0 -3.968,-1.488 -3.968,-3.906 0,-2.852 1.426,-4.092 3.968,-4.092 2.604,0 4.03,1.24 4.03,4.092 0,2.418 -1.426,3.906 -4.03,3.906 z m 24.18,2.976 c 8.432,0 10.416,5.394 10.416,10.788 v 15.5 c 0,1.86 -1.488,3.224 -3.348,3.224 -1.984,0 -3.348,-1.364 -3.348,-3.224 v -14.26 c 0,-3.534 -1.426,-5.952 -5.456,-5.952 -4.65,0 -6.2,2.728 -6.2,6.386 v 13.826 c 0,1.86 -1.426,3.224 -3.348,3.224 -1.922,0 -3.348,-1.364 -3.348,-3.224 V 36.848 c 0,-1.86 1.488,-3.348 3.348,-3.348 1.86,0 3.348,1.488 3.348,3.348 1.178,-1.798 3.782,-3.72 7.936,-3.72 z m 34.41,17.422 v -8.556 c 0,0 -2.418,-3.162 -6.138,-3.162 -4.216,0 -6.634,3.1 -6.634,9.238 0,6.076 2.356,9.176 6.634,9.176 3.596,0 6.138,-2.418 6.138,-6.696 z m -6.82,-17.422 c 2.976,0 5.58,1.24 6.82,2.48 v -14.26 c 0,-1.86 1.488,-3.348 3.348,-3.348 1.86,0 3.348,1.488 3.348,3.348 V 50.55 c 0,8.246 -5.332,12.4 -12.834,12.4 -8.37,0 -13.268,-4.774 -13.268,-14.88 0,-10.106 4.774,-14.942 12.586,-14.942 z m 18.662,35.278 c 3.968,0 5.828,-3.162 7.874,-8.246 l -9.548,-22.01 c -0.124,-0.31 -0.248,-0.744 -0.248,-1.302 0,-1.86 1.488,-3.348 3.348,-3.348 1.86,0 2.79,1.302 3.1,2.108 l 6.82,17.236 6.82,-17.236 c 0.31,-0.806 1.24,-2.108 3.1,-2.108 1.86,0 3.348,1.488 3.348,3.348 0,0.558 -0.124,0.992 -0.248,1.302 l -11.532,26.04 c -2.728,6.076 -6.634,10.416 -12.834,10.416 -1.798,0 -3.224,-1.302 -3.224,-3.1 0,-1.798 1.426,-3.1 3.224,-3.1 z"
     id="Windy"
     inkscape:connector-curvature="0"
     style="fill:#666666;fill-rule:evenodd;stroke:none;stroke-width:1" />
  <g
     style="fill:none;fill-rule:evenodd;stroke:none;stroke-width:1"
     id="Logo-finals/logo-symbol">
    <circle
       id="Background-white"
       cx="40"
       cy="40"
       r="32"
       style="fill:#ffffff" />
    <path
       d="m 36.441535,59.403311 -0.007,7.8e-4 c -0.116072,0.0078 -0.232923,0.0078 -0.348217,0 h -0.697212 c -0.215786,-0.02106 -0.428455,-0.06161 -0.63723,-0.119319 -0.437024,-0.127117 -0.853793,-0.319743 -1.234729,-0.568519 -0.88807,-0.599713 -1.663184,-1.352279 -2.289507,-2.222604 -1.384299,-1.951993 -2.464784,-4.10285 -3.20718,-6.379265 -0.388725,-1.112082 -0.719804,-2.242881 -0.994794,-3.389277 -0.07011,-0.269052 -0.130094,-0.55838 -0.189299,-0.826653 l -0.08959,-0.428923 -0.08024,-0.408648 -0.148791,-0.827432 C 26.478016,43.95426 26.388431,43.664932 26.388431,43.386521 26.039435,41.133502 25.801058,38.871125 25.591505,36.87702 25.173177,32.77105 24.9348,29.322504 24.765755,26.909613 l -0.179951,-2.790343 -0.0592,-0.996663 -0.02025,-0.03041 v -0.348598 c -0.332636,-2.339584 -2.496723,-3.966374 -4.83375,-3.633373 -2.337026,0.333 -3.962039,2.499455 -3.629402,4.839038 l 0.139442,0.996663 0.418328,2.830896 c 0.368471,2.442525 0.905988,5.910568 1.68188,10.097643 0.428455,2.093148 0.837435,4.355525 1.424808,6.807409 0.07946,0.309605 0.14879,0.608291 0.229028,0.927255 l 0.258631,0.996662 c 0.04986,0.159872 0.08959,0.308825 0.139443,0.488193 l 0.14957,0.478835 c 0.09971,0.358737 0.208774,0.668341 0.318614,0.995883 0.451825,1.315626 0.970645,2.605516 1.552565,3.868112 0.604511,1.317185 1.28926,2.595378 2.051909,3.827559 0.803937,1.310946 1.730179,2.542347 2.76704,3.677825 1.129563,1.264155 2.478806,2.310729 3.983072,3.08981 0.838214,0.417226 1.734074,0.707334 2.658757,0.857848 0.473638,0.07721 0.953507,0.113079 1.433377,0.10996 h 0.656704 l 0.677738,-0.08033 c 0.230587,-0.03119 0.459615,-0.07487 0.686307,-0.129457 0.21968,-0.04991 0.428455,-0.10996 0.638008,-0.170009 0.208775,-0.05927 0.417549,-0.129457 0.616975,-0.198865 0.199426,-0.07019 0.398853,-0.139595 0.587373,-0.229279 0.283559,-0.120879 0.563223,-0.251895 0.838213,-0.39227 1.021281,0.584116 2.157076,0.946751 3.333379,1.059831 h 2.021528 c 0.229029,-0.03977 0.458058,-0.07955 0.676959,-0.129457 0.435466,-0.102162 0.861584,-0.238638 1.274459,-0.408647 0.770439,-0.318964 1.499592,-0.72995 2.171097,-1.225942 1.191884,-0.8984 2.256789,-1.955112 3.165114,-3.139721 1.61878,-2.13604 3.003858,-4.438191 4.132642,-6.867458 1.105413,-2.292792 2.021528,-4.575446 2.817675,-6.718505 0.796926,-2.143058 1.484012,-4.215929 2.070605,-6.129709 1.175525,-3.828338 2.002053,-7.047606 2.559824,-9.299845 0.267979,-1.126899 0.477532,-2.013602 0.616975,-2.621893 L 65,26.391786 l -0.308487,0.89684 c -0.198648,0.548243 -0.497787,1.456001 -0.89664,2.541568 -0.796147,2.182831 -1.960765,5.28356 -3.524236,8.921612 -0.786799,1.803819 -1.673311,3.776868 -2.678232,5.79047 -1.005701,2.013601 -2.120463,4.106749 -3.405048,6.169482 -1.257321,2.087688 -2.732763,4.035782 -4.400621,5.812305 -0.78602,0.827433 -1.680323,1.544905 -2.658758,2.132141 -0.426118,0.247996 -0.88028,0.442181 -1.354696,0.578657 -0.207996,0.05693 -0.421444,0.0967 -0.63645,0.120099 H 44.5331 c 0.07479,-0.07643 0.150348,-0.152853 0.225133,-0.22928 1.932721,-2.027639 3.660563,-4.240885 5.157818,-6.609323 1.453631,-2.25302 2.707835,-4.474844 3.81247,-6.647538 1.105413,-2.174253 2.072163,-4.226847 2.90804,-6.160903 1.672532,-3.857194 2.847277,-7.156786 3.594347,-9.488572 0.397294,-1.217363 0.729931,-2.455003 0.995573,-3.70824 -0.394179,1.213464 -0.853015,2.404312 -1.373393,3.567865 -0.96675,2.19375 -2.499839,5.343609 -4.490986,8.971524 -1.0057,1.814737 -2.121241,3.748013 -3.445556,5.741338 -1.323536,1.993325 -2.717962,4.036562 -4.311035,6.029887 -1.58762,2.032318 -3.371551,3.901646 -5.326863,5.582247 -0.33809,0.286209 -0.687086,0.56072 -1.046209,0.820414 -0.201763,-0.313505 -0.378598,-0.644946 -0.52661,-0.989644 -0.452604,-1.0146 -0.80939,-2.068972 -1.065684,-3.15064 C 39.362039,51.957976 39.13301,50.802222 38.963186,49.645687 38.79492,48.489933 38.654699,47.323261 38.53551,46.176865 L 38.375813,44.46273 38.256625,42.818002 c -0.14879,-2.182831 -0.159697,-4.246344 -0.14879,-6.170262 0.0093,-1.923917 0.07868,-3.697322 0.158917,-5.262503 0.07946,-1.565181 0.179172,-2.930718 0.268758,-4.056838 0.08959,-1.12612 0.179172,-2.003464 0.238377,-2.591479 l 0.09971,-0.887482 -0.01947,-0.09904 v -0.379013 c 0.03194,-1.529308 -0.753302,-2.959573 -2.061258,-3.752692 -1.307176,-0.791559 -2.936863,-0.825873 -4.275979,-0.08968 -1.339117,0.736969 -2.183562,2.13292 -2.215502,3.663008 v 0.996663 c 0,0.657423 -0.01091,1.594816 0,2.791123 0.01013,1.196307 0.03973,2.650748 0.09894,4.305614 0.05998,1.654865 0.159696,3.53823 0.328741,5.582246 0.169824,2.043237 0.398853,4.265841 0.757197,6.628821 l 0.29836,1.79368 0.169045,0.886703 0.179951,0.906978 c 0.248504,1.216584 0.52661,2.462022 0.846004,3.737875 0.318615,1.276633 0.696434,2.571982 1.174745,3.897746 0.48766,1.385814 1.10853,2.720156 1.851704,3.986651 0.138664,0.236298 0.284339,0.468697 0.435467,0.697196 M 40.000391,80 C 17.909222,80 0,62.090778 0,39.999609 0,17.907657 17.909222,0 40.000391,0 62.092343,0 80,17.907657 80,39.999609 80,62.090778 62.092343,80 40.000391,80"
       id="Logo"
       inkscape:connector-curvature="0"
       style="fill:#a00000" />
  </g>
</svg>
