<?xml version="1.0" encoding="UTF-8" standalone="no"?>
<svg
   xmlns:dc="http://purl.org/dc/elements/1.1/"
   xmlns:cc="http://creativecommons.org/ns#"
   xmlns:rdf="http://www.w3.org/1999/02/22-rdf-syntax-ns#"
   xmlns:svg="http://www.w3.org/2000/svg"
   xmlns="http://www.w3.org/2000/svg"
   xmlns:xlink="http://www.w3.org/1999/xlink"
   xmlns:sodipodi="http://sodipodi.sourceforge.net/DTD/sodipodi-0.dtd"
   xmlns:inkscape="http://www.inkscape.org/namespaces/inkscape"
   enable-background="new 0 0 64 64"
   height="64px"
   id="SUNNY"
   version="1.1"
   viewBox="0 0 64 64"
   width="64px"
   xml:space="preserve"
   sodipodi:docname="01d.svg"
   inkscape:version="0.92.3 (2405546, 2018-03-11)"><metadata
     id="metadata1653"><rdf:RDF><cc:Work
         rdf:about=""><dc:format>image/svg+xml</dc:format><dc:type
           rdf:resource="http://purl.org/dc/dcmitype/StillImage" /><dc:title /></cc:Work></rdf:RDF></metadata><defs
     id="defs1651"><clipPath
       id="SVGID_2_-3"><use
         overflow="visible"
         xlink:href="#SVGID_1_-3"
         id="use1641-6"
         style="overflow:visible"
         x="0"
         y="0"
         width="100%"
         height="100%" /></clipPath><rect
       height="63.957001"
       id="SVGID_1_-3"
       width="63.957001"
       x="0.011"
       y="0.021" /></defs><sodipodi:namedview
     pagecolor="#ffffff"
     bordercolor="#666666"
     borderopacity="1"
     objecttolerance="10"
     gridtolerance="10"
     guidetolerance="10"
     inkscape:pageopacity="0"
     inkscape:pageshadow="2"
     inkscape:window-width="1879"
     inkscape:window-height="1025"
     id="namedview1649"
     showgrid="false"
     inkscape:zoom="3.6875"
     inkscape:cx="-58.576272"
     inkscape:cy="32"
     inkscape:window-x="41"
     inkscape:window-y="27"
     inkscape:window-maximized="1"
     inkscape:current-layer="SUNNY" /><g
     id="g1646"
     style="fill:#dddddd;fill-opacity:1"
     transform="matrix(1.4190058,0,0,1.4190373,-13.391158,-13.409902)"><defs
       id="defs1639"><rect
         height="63.957001"
         id="SVGID_1_"
         width="63.957001"
         x="0.011"
         y="0.021" /></defs><clipPath
       id="SVGID_2_"><use
         overflow="visible"
         xlink:href="#SVGID_1_"
         id="use1641"
         style="overflow:visible"
         x="0"
         y="0"
         width="100%"
         height="100%" /></clipPath><path
       clip-path="url(#SVGID_2_)"
       d="m 31.991,46.59 c -8.044,0 -14.59,-6.545 -14.59,-14.59 0,-8.044 6.545,-14.59 14.59,-14.59 8.045,0 14.59,6.545 14.59,14.59 0,8.045 -6.545,14.59 -14.59,14.59 z m 0,-27.181 C 25.049,19.409 19.4,25.058 19.4,32 c 0,6.942 5.649,12.591 12.591,12.591 6.942,0 12.591,-5.649 12.591,-12.591 0,-6.942 -5.648,-12.591 -12.591,-12.591 z m 14.385,-0.383 1.558,-1.558 c 0.391,-0.39 0.391,-1.023 0,-1.413 -0.391,-0.391 -1.022,-0.391 -1.413,0 l -1.558,1.558 c -0.391,0.39 -0.391,1.022 0,1.413 0.195,0.195 0.451,0.292 0.707,0.292 0.255,10e-4 0.511,-0.096 0.706,-0.292 z m -28.92,28.92 1.558,-1.558 c 0.39,-0.391 0.39,-1.022 0,-1.413 -0.391,-0.391 -1.023,-0.391 -1.413,0 l -1.558,1.558 c -0.391,0.391 -0.391,1.022 0,1.413 0.195,0.195 0.451,0.293 0.707,0.293 0.256,0 0.511,-0.097 0.706,-0.293 z M 32.988,12.653 V 10.45 c 0,-0.553 -0.447,-1 -1,-1 -0.553,0 -1,0.447 -1,1 v 2.203 c 0,0.552 0.447,0.999 1,0.999 0.553,0 1,-0.447 1,-0.999 z m 0,40.899 v -2.203 c 0,-0.553 -0.447,-1 -1,-1 -0.553,0 -1,0.447 -1,1 v 2.203 c 0,0.553 0.447,0.999 1,0.999 0.553,0 1,-0.447 1,-0.999 z M 13.639,32.001 c 0,-0.552 -0.447,-1 -0.999,-1 h -2.203 c -0.553,0 -1,0.447 -1,1 0,0.553 0.448,0.999 1.001,0.999 h 2.203 c 0.551,0 0.998,-0.447 0.998,-0.999 z m 40.9,0 c 0,-0.552 -0.447,-1 -1,-1 h -2.203 c -0.553,0 -1,0.447 -1,1 0,0.553 0.447,0.999 1,0.999 h 2.203 c 0.553,0 1,-0.447 1,-0.999 z M 19.014,19.026 c 0.39,-0.391 0.39,-1.023 0,-1.413 l -1.558,-1.558 c -0.39,-0.391 -1.023,-0.391 -1.413,0 -0.391,0.39 -0.391,1.023 0,1.413 l 1.558,1.558 c 0.195,0.195 0.451,0.292 0.707,0.292 0.255,10e-4 0.51,-0.096 0.706,-0.292 z m 28.92,28.92 c 0.391,-0.391 0.391,-1.022 0,-1.413 l -1.558,-1.558 c -0.391,-0.391 -1.022,-0.391 -1.413,0 -0.391,0.391 -0.391,1.022 0,1.413 l 1.558,1.558 c 0.195,0.195 0.451,0.293 0.707,0.293 0.254,0 0.51,-0.097 0.706,-0.293 z"
       id="path1644"
       style="fill:#dddddd;fill-opacity:1"
       inkscape:connector-curvature="0" /></g><text
     xml:space="preserve"
     style="font-style:normal;font-variant:normal;font-weight:normal;font-stretch:normal;font-size:40px;line-height:1.25;font-family:'Padauk Book';-inkscape-font-specification:'Padauk Book, ';letter-spacing:0px;word-spacing:0px;fill:#000000;fill-opacity:1;stroke:none"
     x="-96.271187"
     y="8.6779661"
     id="text821"><tspan
       sodipodi:role="line"
       id="tspan819"
       x="-96.271187"
       y="40.432934" /></text>
</svg>