<?xml version="1.0" encoding="UTF-8" standalone="no"?>
<svg
   xmlns:dc="http://purl.org/dc/elements/1.1/"
   xmlns:cc="http://creativecommons.org/ns#"
   xmlns:rdf="http://www.w3.org/1999/02/22-rdf-syntax-ns#"
   xmlns:svg="http://www.w3.org/2000/svg"
   xmlns="http://www.w3.org/2000/svg"
   xmlns:xlink="http://www.w3.org/1999/xlink"
   xmlns:sodipodi="http://sodipodi.sourceforge.net/DTD/sodipodi-0.dtd"
   xmlns:inkscape="http://www.inkscape.org/namespaces/inkscape"
   enable-background="new 0 0 64 64"
   height="64px"
   id="CLOUD"
   version="1.1"
   viewBox="0 0 64 64"
   width="64px"
   xml:space="preserve"
   sodipodi:docname="03n.svg"
   inkscape:version="0.92.3 (2405546, 2018-03-11)"><metadata
     id="metadata17"><rdf:RDF><cc:Work
         rdf:about=""><dc:format>image/svg+xml</dc:format><dc:type
           rdf:resource="http://purl.org/dc/dcmitype/StillImage" /></cc:Work></rdf:RDF></metadata><defs
     id="defs15" /><sodipodi:namedview
     pagecolor="#ffffff"
     bordercolor="#666666"
     borderopacity="1"
     objecttolerance="10"
     gridtolerance="10"
     guidetolerance="10"
     inkscape:pageopacity="0"
     inkscape:pageshadow="2"
     inkscape:window-width="1879"
     inkscape:window-height="1052"
     id="namedview13"
     showgrid="false"
     inkscape:zoom="3.6875"
     inkscape:cx="-13.288136"
     inkscape:cy="32"
     inkscape:window-x="41"
     inkscape:window-y="0"
     inkscape:window-maximized="1"
     inkscape:current-layer="CLOUD" /><g
     id="g10"
     style="fill:#dddddd;fill-opacity:1"
     transform="matrix(1.2915986,0,0,1.2915986,-9.3059676,4.076285)"><defs
       id="defs3"><rect
         height="63.957001"
         id="SVGID_1_"
         width="63.957001"
         x="0.011"
         y="0.021" /></defs><clipPath
       id="SVGID_2_"><use
         overflow="visible"
         xlink:href="#SVGID_1_"
         id="use5"
         style="overflow:visible"
         x="0"
         y="0"
         width="100%"
         height="100%" /></clipPath><path
       clip-path="url(#SVGID_2_)"
       d="M 45.563,46.395 H 17.266 c -5.547,0 -10.061,-4.513 -10.061,-10.06 0,-5.547 4.514,-10.06 10.061,-10.06 0.659,0 1.335,0.08 2.048,0.242 1.899,-5.294 6.969,-8.913 12.657,-8.913 4.791,0 9.159,2.516 11.581,6.616 0.713,-0.143 1.366,-0.21 2.011,-0.21 6.171,0 11.193,5.021 11.193,11.193 0,6.172 -5.023,11.192 -11.193,11.192 z M 17.266,28.274 c -4.445,0 -8.062,3.616 -8.062,8.061 0,4.444 3.617,8.061 8.062,8.061 h 28.297 c 5.07,0 9.194,-4.124 9.194,-9.192 0,-5.07 -4.124,-9.194 -9.194,-9.194 -0.693,0 -1.417,0.103 -2.274,0.321 -0.464,0.114 -0.923,-0.097 -1.136,-0.51 -1.979,-3.835 -5.881,-6.217 -10.182,-6.217 -5.126,0 -9.663,3.453 -11.032,8.397 -0.072,0.261 -0.248,0.482 -0.486,0.612 -0.238,0.129 -0.518,0.155 -0.778,0.075 -0.893,-0.283 -1.658,-0.414 -2.409,-0.414 z"
       id="path8"
       style="fill:#dddddd;fill-opacity:1"
       inkscape:connector-curvature="0" /></g></svg>