<?xml version="1.0" encoding="UTF-8" standalone="no"?>
<!-- Created with Inkscape (http://www.inkscape.org/) -->

<svg
   xmlns:dc="http://purl.org/dc/elements/1.1/"
   xmlns:cc="http://creativecommons.org/ns#"
   xmlns:rdf="http://www.w3.org/1999/02/22-rdf-syntax-ns#"
   xmlns:svg="http://www.w3.org/2000/svg"
   xmlns="http://www.w3.org/2000/svg"
   xmlns:xlink="http://www.w3.org/1999/xlink"
   xmlns:sodipodi="http://sodipodi.sourceforge.net/DTD/sodipodi-0.dtd"
   xmlns:inkscape="http://www.inkscape.org/namespaces/inkscape"
   width="80"
   height="80"
   viewBox="0 0 21.166666 21.166667"
   version="1.1"
   id="svg8"
   inkscape:version="0.92.3 (2405546, 2018-03-11)"
   sodipodi:docname="btn-refresh-browser.svg">
  <defs
     id="defs2">
    <linearGradient
       id="2">
      <stop
         stop-color="#f0ff80"
         id="F" />
      <stop
         stop-color="#8bb300"
         offset="1"
         id="G" />
    </linearGradient>
    <linearGradient
       id="3">
      <stop
         id="H" />
      <stop
         stop-opacity="0"
         offset="1"
         id="I" />
    </linearGradient>
    <linearGradient
       id="4">
      <stop
         stop-color="#eee"
         id="J" />
      <stop
         stop-color="#dcdcdc"
         offset="1"
         id="K" />
    </linearGradient>
    <radialGradient
       gradientTransform="matrix(0.26458333,0,0,0.02286523,-10.041352,288.70249)"
       gradientUnits="userSpaceOnUse"
       xlink:href="#3"
       id="5"
       r="53.91"
       cy="117.35"
       cx="63.894" />
    <radialGradient
       gradientTransform="matrix(-1.404511,1.1888571,-1,-1.1813958,199.73811,11.750541)"
       gradientUnits="userSpaceOnUse"
       xlink:href="#4"
       id="6"
       r="15.03"
       cy="51.39"
       cx="60.05" />
    <radialGradient
       gradientTransform="matrix(1.5330966,-3.1358239e-8,2.404893e-8,1.1240308,-33.828167,2.9909361)"
       gradientUnits="userSpaceOnUse"
       xlink:href="#8"
       id="7"
       r="55.27"
       cy="-15.174"
       cx="64.7" />
    <linearGradient
       id="8">
      <stop
         stop-color="#eee"
         id="L" />
      <stop
         stop-opacity="0"
         stop-color="#eee"
         offset="1"
         id="M" />
    </linearGradient>
    <linearGradient
       gradientUnits="userSpaceOnUse"
       xlink:href="#2"
       id="9"
       y2="120.54"
       x2="0"
       y1="8.707"
       gradientTransform="matrix(0.26774174,0,0,0.2716463,-10.950127,258.25789)" />
  </defs>
  <sodipodi:namedview
     id="base"
     pagecolor="#ffffff"
     bordercolor="#666666"
     borderopacity="1.0"
     inkscape:pageopacity="0.0"
     inkscape:pageshadow="2"
     inkscape:zoom="5.6"
     inkscape:cx="-30.698575"
     inkscape:cy="45.559158"
     inkscape:document-units="px"
     inkscape:current-layer="layer1"
     showgrid="false"
     showguides="true"
     inkscape:guide-bbox="true"
     inkscape:window-width="1879"
     inkscape:window-height="1052"
     inkscape:window-x="1961"
     inkscape:window-y="0"
     inkscape:window-maximized="1"
     units="px" />
  <metadata
     id="metadata5">
    <rdf:RDF>
      <cc:Work
         rdf:about="">
        <dc:format>image/svg+xml</dc:format>
        <dc:type
           rdf:resource="http://purl.org/dc/dcmitype/StillImage" />
        <dc:title></dc:title>
      </cc:Work>
    </rdf:RDF>
  </metadata>
  <g
     inkscape:label="Layer 1"
     inkscape:groupmode="layer"
     id="layer1"
     transform="translate(0,-275.83332)">
    <g
       id="g1072"
       style="fill:#333333;fill-opacity:1;stroke-width:0.28506905;stroke-miterlimit:4;stroke-dasharray:none"
       transform="matrix(0.10325203,0,0,0.10325203,27.881885,261.68988)">
</g>
    <g
       id="g1074"
       style="fill:#333333;fill-opacity:1;stroke-width:0.28506905;stroke-miterlimit:4;stroke-dasharray:none"
       transform="matrix(0.10325203,0,0,0.10325203,27.881885,261.68988)">
</g>
    <g
       id="g1076"
       style="fill:#333333;fill-opacity:1;stroke-width:0.28506905;stroke-miterlimit:4;stroke-dasharray:none"
       transform="matrix(0.10325203,0,0,0.10325203,27.881885,261.68988)">
</g>
    <g
       id="g1078"
       style="fill:#333333;fill-opacity:1;stroke-width:0.28506905;stroke-miterlimit:4;stroke-dasharray:none"
       transform="matrix(0.10325203,0,0,0.10325203,27.881885,261.68988)">
</g>
    <g
       id="g1080"
       style="fill:#333333;fill-opacity:1;stroke-width:0.28506905;stroke-miterlimit:4;stroke-dasharray:none"
       transform="matrix(0.10325203,0,0,0.10325203,27.881885,261.68988)">
</g>
    <g
       id="g1082"
       style="fill:#333333;fill-opacity:1;stroke-width:0.28506905;stroke-miterlimit:4;stroke-dasharray:none"
       transform="matrix(0.10325203,0,0,0.10325203,27.881885,261.68988)">
</g>
    <g
       id="g1084"
       style="fill:#333333;fill-opacity:1;stroke-width:0.28506905;stroke-miterlimit:4;stroke-dasharray:none"
       transform="matrix(0.10325203,0,0,0.10325203,27.881885,261.68988)">
</g>
    <g
       id="g1086"
       style="fill:#333333;fill-opacity:1;stroke-width:0.28506905;stroke-miterlimit:4;stroke-dasharray:none"
       transform="matrix(0.10325203,0,0,0.10325203,27.881885,261.68988)">
</g>
    <g
       id="g1088"
       style="fill:#333333;fill-opacity:1;stroke-width:0.28506905;stroke-miterlimit:4;stroke-dasharray:none"
       transform="matrix(0.10325203,0,0,0.10325203,27.881885,261.68988)">
</g>
    <g
       id="g1090"
       style="fill:#333333;fill-opacity:1;stroke-width:0.28506905;stroke-miterlimit:4;stroke-dasharray:none"
       transform="matrix(0.10325203,0,0,0.10325203,27.881885,261.68988)">
</g>
    <g
       id="g1092"
       style="fill:#333333;fill-opacity:1;stroke-width:0.28506905;stroke-miterlimit:4;stroke-dasharray:none"
       transform="matrix(0.10325203,0,0,0.10325203,27.881885,261.68988)">
</g>
    <g
       id="g1094"
       style="fill:#333333;fill-opacity:1;stroke-width:0.28506905;stroke-miterlimit:4;stroke-dasharray:none"
       transform="matrix(0.10325203,0,0,0.10325203,27.881885,261.68988)">
</g>
    <g
       id="g1096"
       style="fill:#333333;fill-opacity:1;stroke-width:0.28506905;stroke-miterlimit:4;stroke-dasharray:none"
       transform="matrix(0.10325203,0,0,0.10325203,27.881885,261.68988)">
</g>
    <g
       id="g1098"
       style="fill:#333333;fill-opacity:1;stroke-width:0.28506905;stroke-miterlimit:4;stroke-dasharray:none"
       transform="matrix(0.10325203,0,0,0.10325203,27.881885,261.68988)">
</g>
    <g
       id="g1100"
       style="fill:#333333;fill-opacity:1;stroke-width:0.28506905;stroke-miterlimit:4;stroke-dasharray:none"
       transform="matrix(0.10325203,0,0,0.10325203,27.881885,261.68988)">
</g>
    <circle
       style="opacity:1;vector-effect:none;fill:#0066ff;fill-opacity:1;stroke:none;stroke-width:0.07838281;stroke-linecap:butt;stroke-linejoin:miter;stroke-miterlimit:4;stroke-dasharray:none;stroke-dashoffset:0;stroke-opacity:1"
       id="path1206"
       cx="10.583333"
       cy="286.41666"
       r="10.451041" />
    <g
       style="fill:#b3b3b3;fill-opacity:1;stroke-width:0.76875001;stroke-miterlimit:4;stroke-dasharray:none"
       transform="matrix(0.10325203,0,0,0.10325203,2.4999997e-8,275.83332)"
       id="g1182">
      <path
         style="fill:#b3b3b3;fill-opacity:1;stroke-width:0.76875001;stroke-miterlimit:4;stroke-dasharray:none"
         inkscape:connector-curvature="0"
         d="M 102.5,205 C 159.019,205 205,159.019 205,102.5 205,45.981 159.019,0 102.5,0 45.981,0 0,45.981 0,102.5 0,159.019 45.981,205 102.5,205 Z M 190,102.5 c 0,48.248 -39.252,87.5 -87.5,87.5 -9.344,0 -18.349,-1.478 -26.799,-4.203 l 53.578,-45.719 c 2.189,-1.564 4.237,-3.309 6.119,-5.221 l 0.036,-0.031 -0.003,-0.004 c 8.183,-8.335 13.242,-19.747 13.242,-32.322 0,-11.978 -4.586,-22.903 -12.092,-31.117 h 47.697 C 187.97,81.057 190,91.545 190,102.5 Z m -117.919,6.793 c -0.488,-2.188 -0.754,-4.459 -0.754,-6.793 0,-16.907 13.532,-30.704 30.333,-31.151 v 0.035 h 2.646 c 16.351,0.938 29.368,14.534 29.368,31.117 0,8.271 -3.244,15.793 -8.518,21.379 l -5.189,4.428 c -4.986,3.385 -10.999,5.366 -17.466,5.366 -12.685,0 -23.617,-7.62 -28.479,-18.519 l 0.037,-0.012 z M 102.5,15 c 31.334,0 58.869,16.56 74.328,41.383 h -72.114 c -0.734,-0.035 -1.472,-0.056 -2.214,-0.056 -17.303,0 -32.404,9.572 -40.311,23.694 L 46.954,34.941 C 62.074,22.488 81.429,15 102.5,15 Z m -67.389,31.75 22.534,66.679 c 4.466,18.327 19.893,32.395 38.917,34.85 L 60.365,179.166 C 33.345,164.256 15,135.481 15,102.5 15,81.333 22.556,61.899 35.111,46.75 Z"
         id="path1150" />
      <g
         style="fill:#b3b3b3;fill-opacity:1;stroke-width:0.76875001;stroke-miterlimit:4;stroke-dasharray:none"
         id="g1152">
</g>
      <g
         style="fill:#b3b3b3;fill-opacity:1;stroke-width:0.76875001;stroke-miterlimit:4;stroke-dasharray:none"
         id="g1154">
</g>
      <g
         style="fill:#b3b3b3;fill-opacity:1;stroke-width:0.76875001;stroke-miterlimit:4;stroke-dasharray:none"
         id="g1156">
</g>
      <g
         style="fill:#b3b3b3;fill-opacity:1;stroke-width:0.76875001;stroke-miterlimit:4;stroke-dasharray:none"
         id="g1158">
</g>
      <g
         style="fill:#b3b3b3;fill-opacity:1;stroke-width:0.76875001;stroke-miterlimit:4;stroke-dasharray:none"
         id="g1160">
</g>
      <g
         style="fill:#b3b3b3;fill-opacity:1;stroke-width:0.76875001;stroke-miterlimit:4;stroke-dasharray:none"
         id="g1162">
</g>
      <g
         style="fill:#b3b3b3;fill-opacity:1;stroke-width:0.76875001;stroke-miterlimit:4;stroke-dasharray:none"
         id="g1164">
</g>
      <g
         style="fill:#b3b3b3;fill-opacity:1;stroke-width:0.76875001;stroke-miterlimit:4;stroke-dasharray:none"
         id="g1166">
</g>
      <g
         style="fill:#b3b3b3;fill-opacity:1;stroke-width:0.76875001;stroke-miterlimit:4;stroke-dasharray:none"
         id="g1168">
</g>
      <g
         style="fill:#b3b3b3;fill-opacity:1;stroke-width:0.76875001;stroke-miterlimit:4;stroke-dasharray:none"
         id="g1170">
</g>
      <g
         style="fill:#b3b3b3;fill-opacity:1;stroke-width:0.76875001;stroke-miterlimit:4;stroke-dasharray:none"
         id="g1172">
</g>
      <g
         style="fill:#b3b3b3;fill-opacity:1;stroke-width:0.76875001;stroke-miterlimit:4;stroke-dasharray:none"
         id="g1174">
</g>
      <g
         style="fill:#b3b3b3;fill-opacity:1;stroke-width:0.76875001;stroke-miterlimit:4;stroke-dasharray:none"
         id="g1176">
</g>
      <g
         style="fill:#b3b3b3;fill-opacity:1;stroke-width:0.76875001;stroke-miterlimit:4;stroke-dasharray:none"
         id="g1178">
</g>
      <g
         style="fill:#b3b3b3;fill-opacity:1;stroke-width:0.76875001;stroke-miterlimit:4;stroke-dasharray:none"
         id="g1180">
</g>
    </g>
    <path
       id="path1184"
       d="m 15.804856,286.67368 c 0.0077,0.0308 0.01176,0.0574 0.01653,0.0854 0.0023,0.0156 0.006,0.0289 0.0067,0.0491 1.99e-4,8.8e-4 5.31e-4,0.001 7.27e-4,0.002 0.0013,0.0117 0.0028,0.0304 0.0021,0.0504 -3.9e-5,4.4e-4 -0.0038,0.0279 -0.0128,0.0573 -0.01176,0.0381 -0.03073,0.0708 -0.05535,0.0987 -0.02633,0.0301 -0.05805,0.0529 -0.09468,0.0673 -0.01465,0.007 -0.02656,0.01 -0.03604,0.0129 -0.0052,8.7e-4 -0.0083,-4.2e-4 -0.01137,1.2e-4 -8.59e-4,1.6e-4 -0.0017,5.3e-4 -0.0025,6.9e-4 -0.0018,2.5e-4 -0.0015,8.8e-4 -0.006,10e-4 -8.77e-4,6e-5 -0.006,10e-4 -0.006,10e-4 -1.1e-5,0 -0.01111,9e-5 -0.01137,1.3e-4 0,0 -0.0032,-10e-4 -0.0032,-10e-4 -0.0073,1.2e-4 -0.01629,0.004 -0.02172,0.002 -0.0054,2e-5 -0.0088,-0.001 -0.01214,-0.002 -0.0018,-2.4e-4 -0.0039,-8.7e-4 -0.0067,-8.7e-4 -0.0081,6.9e-4 -0.0099,0.004 -0.02774,0.001 -0.03179,-0.004 -0.05734,-0.0116 -0.08344,-0.0166 -0.06102,-0.0116 -0.141483,-0.031 -0.236936,-0.0534 -0.190376,-0.0446 -0.435594,-0.10412 -0.684526,-0.16721 -0.248811,-0.063 -0.501624,-0.12766 -0.692784,-0.17698 -0.09561,-0.0247 -0.176113,-0.0454 -0.23318,-0.0603 -0.02857,-0.007 -0.05127,-0.0139 -0.06682,-0.0181 -0.01546,-0.004 -0.03578,-0.009 -0.02406,-0.006 0.0039,8.8e-4 -0.51721,-0.1314 -1.013446,-0.25887 -0.247474,-0.0635 -0.500348,-0.1252 -0.690162,-0.17768 -0.09574,-0.0265 -0.172583,-0.0521 -0.230171,-0.0701 -0.03052,-0.009 -0.05656,-0.0172 -0.08034,-0.0265 0.01764,0.007 -0.01531,-0.004 -0.04171,-0.0189 -4.12e-4,-2.1e-4 -0.0099,-0.007 -0.01361,-0.008 -0.0057,-8.8e-4 -0.0062,-0.002 -0.0075,-0.004 -0.0081,-0.002 -0.01026,-0.004 -0.01279,-0.006 -0.0062,-0.002 -0.005,-0.006 -0.01059,-0.009 -6.05e-4,-4.6e-4 -0.0023,8.8e-4 -0.0025,6.7e-4 -0.01026,-0.008 -0.0237,-0.0191 -0.03748,-0.0349 -0.0235,-0.0266 -0.04636,-0.0633 -0.0595,-0.10699 -0.01424,-0.0463 -0.01741,-0.0921 -0.0089,-0.13844 0.0047,-0.0236 0.01319,-0.04 0.0196,-0.0533 0.0045,-0.007 0.0044,-0.01 0.01137,-0.0211 0.0038,-0.007 0.0047,-0.013 0.0086,-0.0203 0.01348,-0.0227 0.02607,-0.0399 0.03417,-0.0512 0.02101,-0.0286 0.04401,-0.0551 0.07403,-0.0918 0.06233,-0.0759 0.148269,-0.17692 0.244316,-0.28723 0.141453,-0.16243 0.30976,-0.34879 0.467556,-0.52684 -0.614765,-0.63975 -1.496886,-0.95344 -2.3737768,-0.71848 -1.324689,0.35494 -2.08844,1.7769 -1.711007,3.18551 0.377435,1.40859 1.749846,2.25817 3.0745268,1.90321 0.546153,-0.14634 0.989133,-0.47984 1.306435,-0.91943 0.03706,-0.0513 0.09187,-0.0933 0.167202,-0.1017 0.07042,-0.008 0.137491,0.0145 0.190743,0.0598 0.311084,0.26103 0.466741,0.39504 0.543116,0.45982 0.03875,0.0328 0.05879,0.0489 0.07288,0.0613 -0.01189,-0.01 0.0052,0.006 0.01924,0.0189 0.0046,0.004 0.0028,-6e-5 0.0075,0.004 4.23e-4,4.6e-4 3.44e-4,0.002 7.29e-4,0.002 4.51e-4,4.8e-4 3.19e-4,0.002 7.27e-4,0.002 5.67e-4,6.6e-4 0.0031,8.8e-4 0.0032,0.001 0.0011,7.2e-4 0.0015,-8.7e-4 0.0025,-6.9e-4 0.0124,0.009 0.02716,0.0216 0.04696,0.0384 0.07548,0.0642 0.229827,0.19487 0.538995,0.45492 0.08662,0.0737 0.09633,0.19002 0.064,0.29152 a 0.11153358,0.10488763 75 0 1 -0.02075,0.0805 0.11153358,0.10488763 75 0 1 7.28e-4,0.002 c -0.575126,0.78438 -1.384281,1.3928 -2.376557,1.65868 -2.4178428,0.64786 -4.9431898,-0.9154 -5.6320998,-3.48645 -0.6889116,-2.57106 0.714639,-5.19306 3.132811,-5.84102 1.5873458,-0.42531 3.1995738,0.12953 4.3229408,1.27204 0.118695,-0.13663 0.240973,-0.27714 0.334139,-0.38321 0.06891,-0.0784 0.125259,-0.14511 0.172891,-0.19616 0.02461,-0.0264 0.04809,-0.0464 0.06511,-0.0624 -0.0015,8.7e-4 0.0069,-0.004 0.0069,-0.004 1.6e-5,0 0.0031,-10e-4 0.0052,-0.004 0.0015,-8.9e-4 0.0022,-0.006 0.0045,-0.007 1.4e-5,-1e-5 0.0045,-0.004 0.0052,-0.004 0.0021,-0.002 0.0045,-0.004 0.0052,-0.004 0.0022,-10e-4 0.0045,-0.004 0.0052,-0.004 0.003,-0.002 0.0063,-0.004 0.0069,-0.004 0.0015,-8.8e-4 0.0029,-0.002 0.0052,-0.004 0.0054,-0.004 0.01305,-0.007 0.01957,-0.0116 7.41e-4,-5.3e-4 0.0011,-0.002 0.0018,-0.004 0.0046,-0.002 0.0073,-0.004 0.0124,-0.007 a 0.11153358,0.10488763 75 0 1 0.0025,-7.1e-4 c 0.0015,-8.7e-4 0.0069,-10e-4 0.0076,-10e-4 0.0107,-0.006 0.02263,-0.0153 0.03988,-0.0196 0.03531,-0.009 0.07581,-0.007 0.119432,0.004 0.04416,0.0117 0.08076,0.0293 0.111085,0.0571 0.01363,0.0129 0.02438,0.024 0.03146,0.0334 8.73e-4,0.001 6.73e-4,0.004 0.0015,0.006 0.0024,0.002 0.0066,0.01 0.01048,0.0152 0.0057,0.008 0.01149,0.0129 0.01811,0.0253 0.0107,0.0164 0.01506,0.0323 0.01868,0.046 0.0013,0.004 0.0053,0.009 0.0063,0.0134 9.66e-4,0.004 -3.19e-4,0.009 4.49e-4,0.0117 -1.96e-4,-8.9e-4 0.002,-0.002 0.0011,-0.007 0.0084,0.0174 0.01658,0.0346 0.02487,0.0623 0.02372,0.0613 0.04975,0.14425 0.08181,0.24179 0.06361,0.19458 0.143243,0.44697 0.222544,0.70453 0.07947,0.25752 0.160946,0.51984 0.220278,0.71714 0.02993,0.0982 0.05585,0.18128 0.07282,0.24121 0.0088,0.0294 0.01385,0.0535 0.01872,0.0699 0.0024,0.008 0.004,0.0152 0.0053,0.0196 6.13e-4,10e-4 0.0038,0.004 0.004,0.006 2e-6,2e-5 0.0015,0.006 0.0015,0.006 0.0015,0.004 0.03995,0.13551 0.09976,0.32988 0.06114,0.19757 0.1448,0.4589 0.222825,0.71646 0.07787,0.25664 0.156221,0.51203 0.21285,0.71013 0.02857,0.0999 0.0503,0.18439 0.06593,0.24605 z m -2.332087,2.00339 c -0.0022,-0.004 -0.0044,-0.009 -0.0063,-0.0133 -0.0029,-0.004 -0.0073,-0.007 -0.0089,-0.009 0.0052,0.007 0.0107,0.013 0.01438,0.0232 z m 0.0083,0.0546 c -5e-6,0 -0.0013,-0.004 -0.0015,-0.006 -7.49e-4,0.007 7.19e-4,0.0163 -6.98e-4,0.0212 9.66e-4,-0.007 0.0022,-0.0157 0.0022,-0.0156 z"
       inkscape:connector-curvature="0"
       style="fill:#ffcc00;fill-opacity:1;stroke-width:0.06977617;stroke-miterlimit:4;stroke-dasharray:none" />
  </g>
</svg>
